<svg width="91" height="89" viewBox="0 0 91 89" fill="none" xmlns="http://www.w3.org/2000/svg">
<path d="M90.9222 50.009C91.014 56.7296 89.8372 63.4078 87.4528 69.697C83.2849 80.6587 75.4716 86.9801 63.6605 88.06C52.0608 89.1223 40.9835 87.4237 31.0979 81.0031C19.099 73.1991 13.0291 57.9239 16.3341 44.032C19.463 30.8639 27.9514 22.7915 40.7957 18.799C44.5449 17.5302 48.1945 15.9869 51.7144 14.182C61.2126 9.61752 71.7028 12.8103 78.5006 18.5247C87.3824 25.9901 91.0572 37.0102 90.9222 50.009Z" fill="#FF6F61"/>
<g clip-path="url(#clip0_550_445)">
<path d="M52.1978 0C53.8605 0.361426 55.5019 0.812568 57.1148 1.3514C61.5893 3.10576 65.2038 5.92161 67.3018 10.3444C69.0767 14.0939 68.9921 17.8975 67.4957 21.7109C66.871 23.4326 65.8498 24.9871 64.5126 26.2516C64.4398 26.3434 64.3916 26.4519 64.3725 26.567C64.3534 26.6821 64.364 26.8001 64.4033 26.9101C65.7506 29.1853 65.1689 31.3329 63.8713 32.6106C63.058 33.4553 61.9996 34.03 60.8421 34.2553C59.6845 34.4806 58.4848 34.3455 57.4081 33.8686C57.3435 33.8391 57.2739 33.8145 57.08 33.7457L57.8456 36.9841C58.84 36.9841 59.7895 36.9399 60.7192 36.9841C61.5953 37.0421 62.4476 37.2906 63.2153 37.7117C63.9831 38.1328 64.6473 38.7162 65.1606 39.4202C65.674 40.1243 66.0238 40.9317 66.1851 41.7848C66.3463 42.6379 66.3151 43.5156 66.0937 44.3554C65.4473 46.8125 63.4089 47.8789 60.9877 47.073L60.2817 46.8371C60.4905 48.0018 60.6994 49.0681 60.8734 50.1394C61.4252 53.5793 61.7832 57.0635 60.953 60.528C59.9586 64.7247 57.1198 66.9165 52.8739 67.3686C52.1978 67.4423 51.5415 67.4177 50.9747 67.9828C50.7411 68.2138 50.0997 68.1352 49.6721 68.0566C48.8966 67.919 48.1458 67.6781 47.3205 67.4619C47.4946 70.779 46.8731 73.6734 43.4525 74.961C40.7131 75.9831 38.2323 75.2509 36.0845 73.2262C34.2301 75.6391 31.8983 76.1354 29.2285 74.7005C27.4089 73.7177 25.6539 71.58 26.5737 67.914C25.3307 67.7224 24.0878 67.5798 22.8548 67.3243C18.8775 66.4987 15.2431 64.8083 11.758 62.7934C8.03916 60.6459 4.68326 58.0611 2.05323 54.6408C0.959456 53.2206 0.0645653 51.6923 -0.044812 49.8544C-0.0594233 48.9925 0.19398 48.1468 0.681097 47.4317C1.13735 46.7469 1.47351 45.991 1.67544 45.1958C2.49079 41.0728 6.21951 40.1096 9.32185 41.2055C9.89737 41.4301 10.4419 41.7257 10.9426 42.0851C11.4414 42.466 11.9193 42.8729 12.3745 43.3038C13.9654 40.3111 16.69 40.3995 19.5089 40.7681C19.5089 40.714 19.5487 40.6649 19.5089 40.6305C18.7383 38.7975 19.0763 37.741 20.7717 36.6451C21.7648 36.0308 22.9067 35.6914 24.0779 35.6623L25.0722 35.6131C24.1326 33.903 23.5409 32.2273 23.8939 30.3353C24.0354 29.4317 24.4291 28.5851 25.0307 27.8906C25.6323 27.196 26.418 26.6812 27.2995 26.404C26.8667 25.8286 26.6013 25.1471 26.5321 24.4334C26.4629 23.7197 26.5925 23.0009 26.9068 22.3547C27.5626 21.0677 28.6044 20.0122 29.8898 19.3324C28.1348 17.7402 27.2945 15.8237 27.7967 13.5238C28.3336 11.0667 30.0538 9.95123 32.5148 9.71535C31.8039 6.55061 32.1221 3.70043 35.2592 2.01978C37.7948 0.668382 40.2309 1.42514 42.5428 2.7274C43.7857 2.10821 45.0286 1.39074 46.3113 0.884577C47.3908 0.539178 48.4919 0.263437 49.6075 0.0590278L52.1978 0ZM2.93821 49.3827C3.21074 51.2998 4.07943 53.0857 5.42405 54.4934C8.18863 57.2255 11.4312 59.4399 14.9946 61.0293C19.1807 62.9654 23.6304 64.0711 28.095 65.1375C29.8003 65.5454 30.0389 66.1203 29.0893 67.5946C29.0665 67.6375 29.0465 67.6818 29.0297 67.7273C28.7944 68.2273 28.6795 68.7744 28.6939 69.3257C28.7083 69.8769 28.8516 70.4174 29.1126 70.9048C29.3736 71.3922 29.7452 71.8133 30.1983 72.1351C30.6514 72.4568 31.1737 72.6705 31.7243 72.7594C31.9557 72.8138 32.1959 72.8206 32.43 72.7794C32.6641 72.7383 32.8871 72.6499 33.0852 72.52C33.2834 72.3901 33.4524 72.2212 33.5817 72.024C33.7111 71.8268 33.7981 71.6055 33.8373 71.3736C33.9584 70.5027 33.99 69.6218 33.9317 68.7445C33.9019 68.1106 34.0312 67.6388 34.6576 67.3686C35.2841 67.0983 35.7912 66.8772 36.353 66.5823C36.9944 66.2727 37.3473 66.4152 37.4468 67.1229C37.5214 67.7053 37.5214 68.2947 37.4468 68.8772C37.1783 70.8429 38.4411 71.8257 39.7039 72.3171C41.9263 73.1968 44.1784 72.0075 44.4171 69.7961C44.4942 68.8907 44.5092 67.9812 44.4618 67.0737C44.4367 66.9755 44.391 66.8837 44.3276 66.8041C44.2642 66.7245 44.1846 66.659 44.0939 66.6118C42.7881 65.9149 41.7919 64.7621 41.2998 63.3783C39.689 59.1619 40.0917 54.9946 41.7671 50.8962C42.0291 50.2894 42.3629 49.7153 42.7615 49.1861C42.8996 48.9753 43.1141 48.8247 43.3609 48.7653C43.6078 48.7059 43.8683 48.7422 44.0889 48.8667C44.3337 48.9656 44.5357 49.146 44.6601 49.3766C44.7845 49.6072 44.8234 49.8736 44.7701 50.1296C44.7232 50.3447 44.6617 50.5565 44.5861 50.7635C44.0889 52.5769 43.4526 54.3705 43.0946 56.2084C42.6372 58.4247 42.6471 60.6656 43.6315 62.7836C44.2928 64.194 45.3667 65.2751 46.9676 65.4225C49.0253 65.6075 51.0999 65.4075 53.0827 64.8328C56.906 63.7517 58.9792 61.3929 59.009 57.6139C59.0019 55.5291 58.7365 53.4529 58.2185 51.4318C57.2242 47.2597 55.9713 43.1466 54.8278 39.0039C54.7731 38.8074 54.7234 38.6108 54.6389 38.3012L51.1587 40.7091C51.3923 40.9254 51.4968 41.0285 51.6061 41.1219C53.744 42.891 54.3754 45.1319 53.5948 47.7315C53.0976 49.4416 52.1033 50.8274 50.1445 51.0731C48.653 51.2549 47.3255 50.6358 46.0925 49.8593C43.3581 48.1295 40.6237 46.3752 37.9042 44.6356C37.6832 44.5199 37.5145 44.3262 37.4315 44.093C37.3486 43.8599 37.3576 43.6044 37.4567 43.3775C37.5496 43.1219 37.7216 42.9017 37.9483 42.7482C38.175 42.5947 38.4448 42.5157 38.7195 42.5224C39.9475 42.3947 40.9568 42.95 41.8716 43.633C43.3929 44.778 44.8248 46.041 46.3461 47.1615C47.2002 47.7363 48.1074 48.23 49.0557 48.6357C49.3449 48.7614 49.6701 48.7809 49.9727 48.6908C50.2752 48.6008 50.5354 48.407 50.7063 48.1443C51.0447 47.7201 51.2873 47.2293 51.4181 46.7048C51.5488 46.1803 51.5645 45.6342 51.4642 45.1032C51.364 44.5721 51.15 44.0685 50.8366 43.6259C50.5232 43.1833 50.1177 42.8122 49.6473 42.5372C48.1341 41.7871 46.4842 41.3443 44.7949 41.2349C43.0897 41.0531 41.3794 40.9696 39.6691 40.8369C39.1719 40.8025 38.7593 40.6551 38.7643 40.0801C38.7692 39.5051 39.2167 39.3282 39.7586 39.2988C40.1563 39.2988 40.5491 39.2349 40.9469 39.2152C43.3084 39.1022 45.6848 38.9302 47.9917 39.5248C48.3373 39.6493 48.715 39.6565 49.0652 39.5453C49.4155 39.4341 49.7182 39.2107 49.9257 38.9105C51.109 37.6427 52.3071 36.2863 54.256 36.4534L54.4947 31.4115C52.0089 32.6646 49.9108 31.9029 48.1806 30.0109C47.6089 30.7039 46.9676 31.3378 46.2665 31.9029C44.7353 32.8857 43.2239 32.4435 41.8219 31.5098C39.1869 29.7603 38.8389 27.087 40.8275 25.0722C40.9767 24.9149 40.9418 24.5808 41.0214 24.3646C41.1805 23.9075 41.2402 23.3129 41.5683 23.0426C41.8119 22.8411 42.4185 23.0426 42.851 23.1114C43.1017 23.2155 43.3387 23.3492 43.557 23.5095C48.6629 26.0501 53.9975 27.1509 59.6354 25.716C62.8919 24.8904 65.0744 22.8657 65.7605 19.4897C65.8152 19.2145 65.8202 18.9245 65.8501 18.6395C64.7115 20.5266 63.3642 22.0451 61.0176 22.2121C58.6709 22.3792 56.9756 21.3079 55.673 19.755C54.7184 20.4873 53.8981 21.3718 52.8839 21.8534C49.6722 23.3866 46.5649 22.8068 43.736 20.8706C41.096 19.0523 40.1315 16.4134 40.4497 13.283C40.8176 9.69078 43.4327 6.89462 46.8084 6.47692C50.7311 5.9855 54.266 8.01506 55.5039 11.4599C55.847 12.4083 56.0608 12.4427 56.7916 11.7007C58.2086 10.2903 59.8044 9.29272 61.9622 9.70551C62.4196 9.79397 62.8919 9.79891 63.5183 9.85788C61.4091 6.85836 58.3635 4.62475 54.8477 3.49896C49.5876 1.79865 44.596 3.37116 41.2749 7.7153C38.7145 11.0668 37.581 14.9539 36.8949 19.0179C36.3232 22.4333 35.7961 25.8535 35.2443 29.2689C35.1647 29.7603 35.0504 30.2026 34.9559 30.6793C37.2529 30.7825 38.8985 31.8833 39.5498 33.7064C39.8476 34.5856 39.8752 35.5323 39.6292 36.427C39.3832 37.3217 38.8746 38.1243 38.1676 38.7336C35.8956 40.5863 33.5688 40.3111 31.2073 38.7336C28.8201 41.892 25.9503 44.664 22.7007 46.9501C23.0288 47.3973 23.3421 47.7806 23.6056 48.1885C24.8932 50.223 25.0424 52.2771 23.6603 54.3361C21.9053 56.9554 17.8384 58.469 14.7758 57.6434C13.7203 57.4107 12.7876 56.8035 12.1545 55.9369C11.5214 55.0702 11.2317 54.0041 11.3404 52.9405C11.3404 52.5572 11.395 52.1739 11.4348 51.7071C8.26287 52.0314 5.47377 51.4171 2.93821 49.3827ZM49.0407 20.1973C52.5955 20.1973 54.3406 17.7893 54.3505 15.0571C54.3797 13.5033 53.82 11.995 52.7814 10.8284C51.7428 9.66173 50.3003 8.92118 48.7375 8.75219C46.0627 8.44259 43.3034 10.2756 42.7714 12.8801C42.6021 13.7815 42.6381 14.7089 42.8767 15.5948C43.1154 16.4808 43.5507 17.3031 44.1511 18.0019C44.7515 18.7008 45.5018 19.2586 46.3476 19.635C47.1934 20.0113 48.1134 20.1967 49.0407 20.1777V20.1973ZM12.0613 48.4833C11.937 45.9869 9.75938 43.5691 7.36303 43.1957C6.53871 43.0183 5.67699 43.1572 4.95237 43.5842C4.22776 44.0112 3.69442 44.6944 3.46026 45.4955C3.43348 45.6128 3.43342 45.7345 3.46008 45.8517C3.48673 45.969 3.53941 46.079 3.61435 46.1737C5.99082 48.5079 8.88931 48.9797 12.0613 48.4833ZM32.1867 28.458C31.8139 28.458 31.5205 28.458 31.2272 28.458C30.5678 28.373 29.9034 28.3319 29.2385 28.3352C27.0758 28.4875 26.0317 29.6866 26.2555 31.7751C26.4792 33.8636 27.6873 35.2937 29.2385 36.6009C30.693 34.0768 31.6908 31.3212 32.1867 28.458ZM61.6092 19.4356L61.833 19.6027C62.3311 19.1674 62.772 18.6721 63.1454 18.1284C64.5673 15.3175 63.8316 13.3371 62.2506 11.3075C62.1731 11.2468 62.0831 11.2035 61.9869 11.1805C61.8908 11.1576 61.7907 11.1557 61.6937 11.1749C59.1631 11.7007 56.8363 14.8851 57.1197 17.4208C57.1519 17.9405 57.3626 18.4337 57.717 18.8189C58.0715 19.204 58.5483 19.458 59.0687 19.5388C59.0687 18.1923 59.0388 16.8458 59.0687 15.5043C59.0575 15.3309 59.0831 15.1572 59.1437 14.9942C59.2044 14.8312 59.2988 14.6824 59.421 14.5575C59.5431 14.4327 59.6903 14.3344 59.8531 14.2689C60.0158 14.2035 60.1906 14.1723 60.3663 14.1775C60.5352 14.1804 60.7018 14.2172 60.8558 14.2859C61.0098 14.3546 61.148 14.4536 61.262 14.5769C61.376 14.7001 61.4634 14.8451 61.5188 15.0028C61.5742 15.1606 61.5966 15.3279 61.5844 15.4944C61.6341 16.7967 61.6092 18.1137 61.6092 19.4356ZM58.5715 39.6378C58.8996 40.9646 59.2129 42.2473 59.5261 43.5249C59.5659 43.7407 59.6241 43.9528 59.7001 44.1589C59.7566 44.3163 59.8699 44.4475 60.0183 44.5275C60.6606 44.7851 61.3266 44.9809 62.007 45.1122C62.3661 45.192 62.7425 45.1291 63.055 44.9369C63.3675 44.7448 63.5911 44.4388 63.6774 44.0852C63.8807 43.5549 63.9458 42.9827 63.8668 42.4211C63.7877 41.8594 63.567 41.3265 63.225 40.8713C62.2655 39.515 60.769 39.1169 58.5715 39.6378ZM14.4776 47.9133C17.1271 47.0392 19.6204 45.7572 21.8655 44.1146L19.3796 43.2546C19.0714 43.1514 18.7681 43.0532 18.4549 42.9696C16.6651 42.5175 15.0095 43.2546 14.5273 44.7289C14.2301 45.7683 14.2163 46.8669 14.4874 47.9133H14.4776ZM33.7976 18.1186C34.414 16.1087 35.0156 14.1578 35.5674 12.3543C35.0156 12.3543 34.424 12.3543 33.8274 12.3543C33.3325 12.295 32.8344 12.2655 32.3358 12.2658C30.725 12.4231 29.8948 13.6566 30.3174 15.2143C30.5543 15.9793 31.0097 16.6604 31.6288 17.1756C32.248 17.6908 33.0045 18.0183 33.8074 18.1186H33.7976ZM40.6734 4.40807C40.2508 4.26064 39.8381 4.08865 39.4106 3.98054C36.7507 3.29746 34.6676 4.96337 34.936 7.66617C35.0603 8.87015 35.5973 10.0299 35.9801 11.3272C36.7706 9.99056 37.3971 8.81608 38.1378 7.72022C38.8786 6.62436 39.7984 5.56781 40.6734 4.40807ZM28.0502 38.6255C27.4338 38.3995 27.0559 38.2422 26.693 38.1341C25.1766 37.7213 23.6702 37.5395 22.2185 38.3896C21.4329 38.8516 21.1794 39.51 21.587 40.316C21.8853 40.9008 22.3527 41.3922 22.7007 41.9524C22.9253 42.3491 23.1278 42.7575 23.3072 43.1761L28.0502 38.6255ZM56.8513 29.6227C56.8929 30.2327 57.1253 30.8148 57.5163 31.2884C57.9074 31.7621 58.4377 32.1039 59.0339 32.2665C59.6525 32.4084 60.2998 32.3655 60.8937 32.1433C61.4876 31.921 62.0013 31.5295 62.3699 31.0184C62.6738 30.5772 62.8363 30.0558 62.8363 29.522C62.8363 28.9882 62.6738 28.4668 62.3699 28.0256L56.8513 29.6227ZM32.6193 26.0796L33.4147 20.787C33.0269 20.8509 32.7585 20.8804 32.495 20.9492C31.3246 21.1975 30.2632 21.8046 29.4622 22.6839C28.5275 23.7601 28.8656 25.6865 30.0439 25.8929C30.9016 26.0008 31.7647 26.0615 32.6292 26.0747L32.6193 26.0796ZM42.1898 25.7552C41.8731 26.2319 41.7161 26.795 41.741 27.3648C41.766 27.9345 41.9717 28.4821 42.3289 28.9298C42.9703 29.7751 43.9547 30.2075 44.7601 29.9863C45.2132 29.8342 45.6097 29.5509 45.8978 29.1732C46.1859 28.7955 46.3525 28.3408 46.3759 27.8684L42.1898 25.7552ZM18.9322 54.798L17.3114 49.8839C16.9932 50.1541 16.4463 50.3753 16.3668 50.7193C16.0287 52.1936 15.8248 53.7366 15.5613 55.3091C16.7146 55.4742 17.8915 55.2962 18.9421 54.798H18.9322ZM20.2099 48.3802C19.8519 48.7438 19.2156 49.0927 19.1758 49.4957C19.0865 51.0896 19.3653 52.6827 19.9911 54.1543C22.3875 52.8078 22.5217 50.4245 20.2198 48.3802H20.2099ZM35.4084 37.7802C36.0053 37.5543 36.5101 37.14 36.8445 36.6015C37.1789 36.0631 37.3242 35.4307 37.2578 34.8023C37.2436 34.4121 37.0733 34.0434 36.7843 33.7771C36.4954 33.5109 36.1114 33.3688 35.7166 33.3821C35.6271 34.8367 35.5227 36.2962 35.4183 37.7802H35.4084ZM12.9363 51.4908C12.9363 52.7931 13.1749 53.9135 14.2339 54.7883L14.7609 50.9994L12.9363 51.4908ZM34.061 37.9965L33.8124 34.2028L32.1121 37.4215L34.061 37.9965ZM50.2936 29.0183C50.4634 29.2593 50.6814 29.4634 50.9342 29.6178C51.1869 29.7722 51.4691 29.8737 51.7631 29.9161C52.0571 29.9585 52.3568 29.9408 52.6437 29.8641C52.9305 29.7874 53.1984 29.6535 53.4308 29.4704L50.2936 29.0183Z" fill="#363636"/>
<path d="M33.9468 60.5281C33.2777 60.4609 32.6136 60.3526 31.9581 60.2037C31.1026 60.0112 30.3335 59.5492 29.7667 58.8871C29.2 58.2249 28.8664 57.3987 28.816 56.5328C28.7259 55.5372 28.9256 54.5368 29.3916 53.6496C29.8575 52.7624 30.5703 52.0254 31.446 51.5253C32.0214 51.2005 32.5499 50.8005 33.0171 50.3361C34.5086 48.8618 36.6961 48.9945 38.0982 50.6752C39.7736 52.6851 39.9129 56.2134 38.3965 58.3364C37.4519 59.6829 35.9852 60.3806 33.9468 60.5281ZM35.488 57.6533C35.9693 57.367 36.3602 56.9535 36.6167 56.4595C36.8732 55.9655 36.9851 55.4105 36.9398 54.8571C36.9775 54.3179 36.8886 53.7774 36.6798 53.2778C36.4711 52.7782 36.1483 52.3331 35.7366 51.9774L35.488 57.6533ZM32.0078 57.5108L31.7791 53.7023C30.6903 54.9161 30.7848 56.6655 32.0228 57.5255L32.0078 57.5108ZM33.6883 52.9897H33.5242L33.2557 57.9874H34.0611L33.6883 52.9897Z" fill="#363636"/>
<path d="M46.8135 15.853C46.8533 15.2437 46.8682 14.6343 46.9378 14.025C46.9572 13.7648 47.0667 13.5193 47.2478 13.3296C47.4289 13.1398 47.6705 13.0175 47.9321 12.9832C48.209 12.8995 48.5059 12.9059 48.7788 13.0015C49.0518 13.097 49.2865 13.2766 49.4485 13.5139C49.8661 14.1724 50.244 14.8604 50.0203 15.7204C49.9277 16.2252 49.8728 16.736 49.8562 17.2487C49.8531 17.4582 49.8073 17.665 49.7213 17.8565C49.6353 18.048 49.511 18.2204 49.3559 18.3632C49.2007 18.506 49.0179 18.6162 48.8185 18.6873C48.6191 18.7585 48.4073 18.789 48.1956 18.777C47.3355 18.7426 46.8682 18.1971 46.8433 17.1799C46.8433 16.7376 46.8433 16.2953 46.8433 15.853H46.8135Z" fill="#363636"/>
</g>
<defs>
<clipPath id="clip0_550_445">
<rect width="68.6243" height="75.4867" fill="white"/>
</clipPath>
</defs>
</svg>
