<svg width="89" height="77" viewBox="0 0 89 77" fill="none" xmlns="http://www.w3.org/2000/svg">
<path d="M88.3489 37.9998C88.4407 44.7204 87.2639 51.3985 84.8796 57.6877C80.7117 68.6495 72.8983 74.9708 61.0873 76.0507C49.4875 77.113 38.4103 75.4145 28.5247 68.9938C16.5258 61.1899 10.4559 45.9146 13.7609 32.0228C16.8898 18.8546 25.3782 10.7822 38.2224 6.78972C41.9717 5.52089 45.6212 3.97767 49.1412 2.17272C58.6393 -2.39176 69.1296 0.80103 75.9274 6.51538C84.8092 13.9808 88.484 25.0009 88.3489 37.9998Z" fill="#FF6F61"/>
<g clip-path="url(#clip0_550_442)">
<path d="M69.3475 19.8266C69.0876 19.5803 68.805 19.3593 68.5034 19.1664L63.6628 15.9841C59.1619 13.0131 54.506 9.9629 49.8995 6.9985C46.7439 4.96502 43.7763 3.18899 40.8317 1.56484C39.5878 0.849078 38.1923 0.438434 36.7594 0.366537C34.9327 0.343429 33.0796 0.429279 31.2891 0.511806C29.4195 0.594334 27.4872 0.683439 25.5912 0.650427C21.5453 0.581104 17.4301 0.445758 13.4502 0.320316C10.0407 0.208078 6.52567 0.089264 3.04363 0.0166395C2.07419 -0.00646825 0.50793 0.419351 0.112243 1.27104C-0.217496 1.98738 0.254033 2.92161 0.712371 3.80631C0.791508 3.95816 0.867342 4.10339 0.93329 4.24204C1.13182 4.58713 1.40574 4.8828 1.73455 5.10693C1.86315 5.21257 1.98845 5.30831 2.08738 5.40734L4.7055 7.98223C6.46631 9.71861 8.28317 11.5078 10.0868 13.264C10.9771 14.1289 11.2047 14.9773 10.8716 16.1954C10.3572 18.0704 9.98133 20.0082 9.61532 21.8799L9.3977 22.9924C9.18311 23.8679 9.24227 24.7883 9.56722 25.629C9.89217 26.4697 10.4672 27.1903 11.2145 27.6932C12.1279 28.3534 13.0809 28.9872 14.0041 29.5946L15.0461 30.2845C19.4415 33.2258 24.4668 34.5265 29.3304 35.7809C30.8208 36.1671 32.3607 36.5666 33.8544 37.0023C37.6142 38.0808 41.5326 38.4975 45.4348 38.2336C49.6918 37.9959 52.0626 36.0516 53.1277 31.9318L53.1672 31.7766C53.3981 30.8886 53.6355 29.9709 53.8894 29.0763C54.0245 28.5977 54.1169 28.086 54.2191 27.571C54.4136 26.4949 54.6148 25.3857 55.1786 24.9301C55.8381 24.3788 57.0746 24.3227 58.2617 24.2699C58.7266 24.2468 59.208 24.2237 59.6598 24.1709C60.7183 24.0487 61.7899 23.9728 62.9242 23.8936L63.9497 23.821V23.9761C63.9101 24.3986 63.8772 24.7486 63.8475 25.0985C63.7354 26.4894 63.6255 27.8791 63.5178 29.2678C63.2111 33.0212 62.8912 36.9033 62.6307 40.726L62.6077 41.0561C62.5186 42.4657 62.4395 43.6805 61.4338 44.6873C60.959 45.1594 60.804 45.9021 60.6853 46.6184C60.4281 48.17 60.2369 49.7512 60.0522 51.2796V51.3324C60.0159 51.6229 59.9764 51.9134 59.9368 52.2039C59.7826 53.1872 59.6955 54.1798 59.6763 55.1749C59.6631 55.595 59.7361 56.0134 59.8909 56.404C60.0458 56.7947 60.2791 57.1494 60.5765 57.4461C61.2976 58.096 62.245 58.4362 63.2144 58.3935H63.3958C64.7147 58.3506 65.4995 58.1063 65.9941 57.5781C66.4887 57.05 66.6535 56.3204 66.6206 55.1452C66.5744 53.8248 66.4887 52.4746 66.403 51.1839C66.2546 48.8929 66.1029 46.5227 66.1787 44.2119C66.3172 39.9205 66.6206 35.563 66.914 31.3376C67.0503 29.4296 67.1789 27.5226 67.2999 25.6168C67.3724 24.4746 67.7582 23.92 68.721 23.5767C69.8817 23.164 70.2411 22.5269 70.34 22.0681C70.439 21.6092 70.3235 20.7509 69.3475 19.8266ZM64.1772 46.7208C64.0895 46.9477 63.9719 47.162 63.8277 47.3579L63.7057 47.556L63.5276 47.3381C63.3319 47.1317 63.1684 46.8969 63.0429 46.6416C63.1466 46.3268 63.3241 46.0415 63.5606 45.8097C63.8238 46.07 64.0333 46.3796 64.1772 46.7208ZM12.4082 18.5821C12.8632 16.2317 13.3381 13.8021 14.6867 11.6927C15.6364 10.2072 17.1696 9.3819 19.5108 9.14422C24.0084 8.65566 28.6347 9.10131 33.6566 10.5043C40.7097 12.4849 45.7976 14.7 50.1435 17.7106C52.3627 19.2489 53.1969 21.1008 52.7814 23.547C52.4517 25.3824 52.0362 27.1782 51.5878 29.1093C51.4394 29.7333 51.291 30.3638 51.1459 31.0075C41.4846 24.0091 30.5669 20.5661 17.9478 20.5661C15.9925 20.5661 13.991 20.6486 11.9466 20.817C12.1082 20.0742 12.2664 19.3215 12.4115 18.5821H12.4082ZM21.9245 6.81032C16.8663 6.81032 15.5803 7.49036 11.8806 11.9436L3.95371 4.13642L4.39555 4.18925C5.54964 4.31799 6.54546 4.43351 7.56105 4.45001C15.5177 4.59856 24.9284 4.76364 34.4018 4.84947C37.2375 4.87588 39.2984 5.37763 41.079 6.4802C48.3629 10.9796 55.8843 15.654 63.4386 20.368C63.9384 20.6963 64.4154 21.0581 64.8664 21.4508L64.929 21.5003L63.5672 21.6158C60.8436 21.8469 58.2683 22.0681 55.7491 22.21C55.4652 22.0875 55.2322 21.8706 55.0896 21.596C54.5851 18.7868 52.9694 16.5981 50.282 15.0994C40.3371 9.54693 31.543 6.91927 22.6037 6.83014L21.9245 6.81032ZM50.1435 33.6055C50.1435 34.0544 49.7215 34.4538 49.362 34.708C48.4316 35.3259 47.3748 35.7274 46.2691 35.8832C42.642 36.4708 38.7181 36.1308 33.9402 34.8104C32.974 34.543 32.0046 34.2822 31.0352 34.0214C29.3337 33.5592 27.5729 33.0839 25.8517 32.5854C21.5123 31.3343 17.2785 29.2348 12.9523 26.168C12.3851 25.7653 11.8312 24.9367 11.8345 24.7288C11.9882 24.3734 12.2142 24.0539 12.4981 23.7908C12.7819 23.5277 13.1174 23.3266 13.4832 23.2003C14.7876 22.9337 16.1103 22.7659 17.44 22.6986C17.9874 22.6557 18.5348 22.6127 19.0887 22.5566C27.1376 22.5995 34.5469 24.907 40.7361 27.1584C43.0838 28.0134 45.2568 29.5913 47.3539 31.1197C48.0134 31.5984 48.6993 32.11 49.3752 32.5623C49.7347 32.7967 50.1435 33.1862 50.1468 33.6055H50.1435Z" fill="#363636"/>
</g>
<defs>
<clipPath id="clip0_550_442">
<rect width="70.3399" height="58.3307" fill="white"/>
</clipPath>
</defs>
</svg>
