<svg width="91" height="77" viewBox="0 0 91 77" fill="none" xmlns="http://www.w3.org/2000/svg">
<path d="M90.9222 37.9998C91.014 44.7204 89.8372 51.3985 87.4528 57.6877C83.2849 68.6495 75.4716 74.9708 63.6605 76.0507C52.0608 77.113 40.9835 75.4145 31.0979 68.9938C19.099 61.1899 13.0291 45.9146 16.3341 32.0228C19.463 18.8546 27.9514 10.7822 40.7957 6.78972C44.5449 5.52089 48.1945 3.97767 51.7144 2.17272C61.2126 -2.39176 71.7028 0.80103 78.5006 6.51538C87.3824 13.9808 91.0572 25.0009 90.9222 37.9998Z" fill="#FF6F61"/>
<g clip-path="url(#clip0_550_443)">
<path d="M9.53008 40.9637C10.476 41.6022 10.5998 42.0662 10.1058 43.1226C9.07216 45.3336 7.87986 47.954 6.87355 50.6337C6.60542 51.3472 6.58622 52.741 7.16619 53.3006C7.64079 53.7589 8.44594 53.8216 9.22455 53.8821C9.45477 53.9001 9.67211 53.917 9.8768 53.9437C9.90991 53.9481 9.94324 53.9501 9.97663 53.9501C10.2598 53.9235 10.5325 53.8308 10.7722 53.6799L10.8733 53.6276C11.7266 53.1928 12.5808 52.7592 13.4358 52.3269C15.8762 51.0907 18.3996 49.8116 20.8567 48.5069L20.8797 48.4949C23.8365 46.926 26.6268 45.4432 30.0533 46.0949C30.1964 46.1173 30.3414 46.1231 30.486 46.1114C30.5317 46.1091 30.578 46.1071 30.6232 46.1066C38.7636 46.0337 45.0362 44.3686 50.3637 40.8671C58.5231 35.5035 62.1867 27.8278 60.4152 19.8083C58.775 12.3832 55.5411 7.76311 49.9298 4.82867C44.225 1.84593 37.7965 0.132059 31.8287 0.00280762C31.8264 0.00317953 31.8241 0.00317953 31.8221 0.00280762C24.4559 0.0314472 18.3018 1.22739 12.4555 3.76734C5.36839 6.84572 1.48241 11.2684 0.575921 17.288C0.185168 19.7367 0.138559 22.2267 0.437426 24.6879C1.41871 32.1723 4.39316 37.4961 9.53008 40.9637ZM12.0251 47.0154C12.5179 45.2831 12.9829 43.6469 13.5629 42.0794C14.4727 39.6226 13.13 38.2422 11.8596 37.314C9.92735 35.903 7.97286 34.2785 6.76337 31.9694C3.63982 26.0061 3.21476 20.4199 5.4629 14.8914C6.68225 11.8933 9.15758 9.66714 13.2528 7.88551C18.9053 5.42649 24.5312 4.19708 30.0933 4.19708C35.631 4.22139 41.0992 5.41568 46.1292 7.6992C51.9366 10.2775 55.1572 14.5299 56.2648 21.0822C57.1746 26.4591 55.6626 30.9376 51.5093 35.1755C47.8105 38.9492 42.8237 41.1699 35.8157 42.1638C32.2835 42.6649 28.1057 43.08 23.9009 42.3596C23.376 42.2717 22.789 42.5957 22.3141 42.8577C19.4678 44.4341 16.6483 46.015 13.6635 47.689L11.4803 48.9128C11.6708 48.2613 11.8502 47.6305 12.0251 47.0156V47.0154Z" fill="#363636"/>
<path d="M19.2779 26.7186H19.313C19.7096 26.7174 20.1019 26.6379 20.467 26.4853C20.8321 26.3323 21.1626 26.1095 21.4391 25.8293C21.6766 25.5877 21.862 25.3011 21.9841 24.987C22.1062 24.6729 22.1625 24.3377 22.1495 24.0016C22.1047 23.3165 21.8046 22.672 21.3069 22.1917C20.8092 21.7113 20.149 21.4291 19.453 21.3993C19.0833 21.4016 18.7177 21.4763 18.3774 21.6189C18.0371 21.7615 17.7289 21.969 17.4707 22.2298C17.1892 22.4949 16.9636 22.8122 16.807 23.1635C16.6504 23.5148 16.5657 23.8933 16.5579 24.2769C16.5558 24.5886 16.6169 24.8976 16.7377 25.1858C16.8584 25.4739 17.0363 25.7352 17.261 25.9548C17.8042 26.4623 18.5295 26.737 19.2779 26.7186Z" fill="#363636"/>
<path d="M31.2467 27.4095H31.272C31.9579 27.404 32.6137 27.1318 33.0969 26.6522C33.6051 26.1653 33.898 25.5004 33.9119 24.802C33.9177 24.1047 33.526 23.2802 32.8896 22.6514C32.4583 22.1743 31.8565 21.8799 31.2101 21.8296H31.202C29.8967 21.8371 28.597 23.2475 28.5781 24.677C28.5715 25.0344 28.6372 25.3895 28.7714 25.7215C28.9053 26.0537 29.105 26.3563 29.359 26.6116C29.6044 26.8611 29.8975 27.0601 30.2215 27.1971C30.5457 27.334 30.894 27.4063 31.2467 27.4095Z" fill="#363636"/>
<path d="M42.6404 27.1205H42.657C43.3073 27.0959 43.9262 26.8379 44.397 26.3953C44.868 25.9525 45.1587 25.3556 45.2145 24.7166C45.1968 24.0851 44.9279 23.4857 44.4657 23.048C43.844 22.3656 42.9813 21.943 42.0541 21.8665C41.8188 21.862 41.5853 21.9048 41.3674 21.992C41.1496 22.0793 40.9522 22.2092 40.787 22.3741C40.5269 22.6375 40.3225 22.9494 40.186 23.2915C40.0495 23.6335 39.9833 23.9989 39.9917 24.3664C39.9757 25.0769 40.2451 25.7645 40.7412 26.2803C41.237 26.7958 41.9196 27.0981 42.6404 27.1205Z" fill="#363636"/>
</g>
<defs>
<clipPath id="clip0_550_443">
<rect width="60.9041" height="54.0416" fill="white"/>
</clipPath>
</defs>
</svg>
