<svg width="84" height="77" viewBox="0 0 84 77" fill="none" xmlns="http://www.w3.org/2000/svg">
<path d="M83.202 37.9998C83.2938 44.7204 82.117 51.3985 79.7326 57.6877C75.5647 68.6495 67.7513 74.9708 55.9403 76.0507C44.3406 77.113 33.2633 75.4145 23.3777 68.9938C11.3788 61.1899 5.30893 45.9146 8.61391 32.0228C11.7428 18.8546 20.2312 10.7822 33.0755 6.78972C36.8247 5.52089 40.4743 3.97767 43.9942 2.17272C53.4924 -2.39176 63.9826 0.80103 70.7804 6.51538C79.6622 13.9808 83.337 25.0009 83.202 37.9998Z" fill="#FF6F61"/>
<path d="M57.4114 20.0905C57.3434 19.888 57.232 19.7028 57.0851 19.5478C56.9382 19.3928 56.759 19.2718 56.5605 19.1932C56.2239 19.0524 55.8648 18.9732 55.5002 18.9592L55.0305 18.9416C53.9043 18.8985 52.7405 18.8545 51.5931 18.8785C46.2272 18.9937 42.1127 21.5779 39.3643 26.5589C38.6524 27.8061 38.2966 29.2248 38.3361 30.6602C38.3539 31.1772 38.1578 31.4474 37.7343 31.8275C36.4462 32.9838 35.1149 34.1797 33.8693 35.4255C32.6377 36.6582 31.4014 37.9266 30.2058 39.1531C28.5274 40.8748 26.7919 42.6551 25.0447 44.3628C19.5907 49.692 14.0201 55.0849 8.63283 60.3006C6.52959 62.3366 4.42685 64.373 2.32461 66.4102C0.655759 68.0283 -0.0808762 69.6715 0.00700961 71.5814C0.0114443 72.1548 0.190221 72.7136 0.519575 73.1833C0.848929 73.6533 1.31328 74.0116 1.85113 74.2116C2.47047 74.4835 3.13906 74.6255 3.81551 74.6289C4.6883 74.6211 5.5442 74.3873 6.29957 73.9502C7.97308 73.0113 9.72487 71.9698 11.133 70.4789C13.4851 67.9884 15.9493 65.4368 18.4571 62.8912C20.6722 60.6435 22.9499 58.3819 25.1527 56.1947C31.1923 50.1979 37.4379 43.9963 43.0748 37.402C43.6797 36.6939 44.1899 36.225 45.247 36.6415L45.3204 36.6702L45.3956 36.6518C45.622 36.5967 45.8663 36.5473 46.1207 36.4957C46.7704 36.3813 47.4091 36.2117 48.0302 35.9888C49.1925 35.5635 50.2386 34.8707 51.0834 33.9663C51.9285 33.0619 52.5486 31.9713 52.8938 30.7828C53.3783 29.2408 53.7242 27.6944 53.9984 26.3851C54.4508 24.2275 55.2172 22.9222 56.5615 22.0202C56.832 21.8343 57.0609 21.5936 57.2327 21.3138C57.3498 21.1353 57.4266 20.9333 57.4575 20.722C57.4883 20.5106 57.4727 20.2951 57.4114 20.0905ZM3.02528 71.35C2.95942 71.2668 2.91337 71.1697 2.89056 71.0661C2.86774 70.9626 2.86875 70.8551 2.89355 70.7521C2.90919 70.3703 3.00469 69.996 3.1739 69.6536C3.34311 69.3112 3.58226 69.0079 3.87593 68.7636C5.1176 67.6827 6.30175 66.5003 7.44721 65.3567C7.9449 64.8601 8.44262 64.3635 8.94594 63.8732C15.4 57.5896 21.8552 51.3072 28.3114 45.0263C28.3731 44.9707 28.438 44.9186 28.5058 44.8704L28.5577 44.8315L30.0481 46.7228C29.9845 46.7918 29.9235 46.8586 29.8643 46.9237C29.6606 47.1465 29.4772 47.3474 29.2865 47.541L28.5048 48.3353C22.7713 54.1619 17.036 59.9873 11.2992 65.8118L11.1191 65.9941C9.54156 67.5963 7.91014 69.2531 5.90688 70.37C5.15716 70.7878 4.36408 71.1229 3.54177 71.3691C3.45966 71.4044 3.37072 71.421 3.28137 71.4179C3.19201 71.4144 3.10454 71.3914 3.02528 71.35ZM53.015 21.8051C51.8484 23.3026 51.3897 24.987 50.9449 26.6223C50.8183 27.0874 50.6876 27.5674 50.5434 28.0307C50.2993 28.8594 49.9813 29.6644 49.5928 30.436C48.6234 32.2906 46.7068 33.1953 44.5924 32.7973C44.0075 32.6871 43.4249 32.5632 42.8787 32.4455C41.6943 32.1907 41.2299 31.5857 41.3257 30.4223C41.3599 29.8648 41.488 29.3171 41.7039 28.802C43.5478 24.6838 46.34 22.4033 50.2403 21.8306C50.6058 21.7804 50.9747 21.7571 51.3439 21.7611C51.6575 21.7611 51.9841 21.7723 52.3322 21.7855C52.5545 21.7921 52.7817 21.7997 53.0154 21.8051H53.015ZM41.1873 35.2782L32.6487 44.1655L30.9967 42.3051L39.2149 33.6192L41.1873 35.2782Z" fill="#363636"/>
</svg>
