<svg width="76" height="86" viewBox="0 0 76 86" fill="none" xmlns="http://www.w3.org/2000/svg">
<path d="M75.4818 47.4356C75.5736 54.1562 74.3968 60.8343 72.0124 67.1236C67.8445 78.0853 60.0311 84.4067 48.2201 85.4865C36.6204 86.5489 25.5431 84.8503 15.6575 78.4297C3.65861 70.6257 -2.41128 55.3505 0.893697 41.4586C4.02257 28.2905 12.511 20.218 25.3552 16.2256C29.1045 14.9567 32.7541 13.4135 36.274 11.6086C45.7722 7.04409 56.2624 10.2369 63.0602 15.9512C71.942 23.4167 75.6168 34.4368 75.4818 47.4356Z" fill="#FF6F61"/>
<g clip-path="url(#clip0_550_440)">
<path d="M42.5125 44.4895C42.2034 34.5828 41.8359 24.4698 41.3896 13.5726C41.2738 10.749 41.0417 7.88493 40.8174 5.11527C40.7631 4.44601 40.7094 3.7767 40.6563 3.10727C40.4945 1.05698 39.3915 0.0467687 37.2833 0.022469C37.1988 0.0199378 37.1127 0.0239427 37.0276 0.0269801L34.7889 0.0672722C32.8633 0.101022 30.9378 0.137128 29.0123 0.175603C28.4811 0.175343 27.9511 0.225605 27.4293 0.325709C26.1707 0.598068 25.7813 1.04355 25.6925 2.31194C25.6458 3.13957 25.6419 3.96903 25.6809 4.79707C25.9027 11.4681 26.1295 18.1392 26.3678 25.1481L26.5707 31.1188C26.5893 32.2768 26.6127 33.4954 26.6369 34.7567C26.6963 37.8718 26.7578 41.0931 26.7721 44.3849C26.7832 46.9096 26.7544 49.478 26.7265 51.9617C26.7056 53.8477 26.684 55.798 26.6797 57.7166C26.6734 60.4428 27.718 61.5274 30.405 61.5849C30.6985 61.5912 30.9918 61.5942 31.2848 61.594C32.9116 61.594 34.5319 61.5051 36.1043 61.4186C37.886 61.3209 39.321 61.1867 40.6211 60.9963C42.0214 60.7916 42.5731 60.0962 42.5263 58.5955L42.524 58.5147C42.4737 56.9325 42.4234 55.296 42.4299 53.6892C42.4344 52.5572 42.4609 51.4045 42.486 50.2898C42.5286 48.3883 42.5731 46.4223 42.5125 44.4895ZM30.0728 53.5171C30.2407 53.4905 30.4038 53.4665 30.5634 53.4412C31.0601 53.3652 31.529 53.2956 31.9901 53.1825C33.3116 52.859 33.5893 52.0702 33.5895 51.4658C33.5895 50.8411 33.3088 50.044 31.9682 49.7952C31.5423 49.7157 31.1096 49.6203 30.6517 49.519C30.4977 49.4851 30.3391 49.4499 30.1747 49.4142V46.1489C30.256 46.1403 30.3369 46.1322 30.4174 46.1236C30.7772 46.0948 31.135 46.0447 31.489 45.9733L31.7225 45.9227C32.2235 45.849 32.7066 45.6832 33.1477 45.4334C33.3816 45.2858 33.5691 45.0747 33.6885 44.8244C33.8078 44.574 33.8541 44.2948 33.8221 44.0192C33.7805 43.7043 33.6523 43.4071 33.452 43.1613C33.2517 42.9156 32.9871 42.731 32.6881 42.6283C32.084 42.4225 31.4639 42.2678 30.8342 42.1658C30.6105 42.1225 30.3829 42.079 30.1524 42.0301V38.8934L30.5639 38.8145C31.0316 38.7244 31.5142 38.6315 31.9974 38.5444C32.3415 38.4821 33.3892 38.2933 33.4478 37.2028C33.5095 36.0481 32.4173 35.7841 32.0062 35.6841C31.5093 35.5639 31.0046 35.4857 30.4707 35.4026C30.2983 35.3761 30.1224 35.3485 29.9422 35.3191V32.1351L30.0197 32.1267C30.3111 32.1004 30.6008 32.0576 30.8873 31.9979C30.9807 31.9771 31.0777 31.9586 31.1753 31.9399C31.59 31.9002 31.9869 31.7511 32.3262 31.5078C32.6801 31.1957 33.1435 30.4938 33.0146 29.9777C32.915 29.6856 32.752 29.4193 32.5375 29.1981C32.3231 28.9771 32.0624 28.8065 31.7744 28.6992C31.2545 28.5597 30.7171 28.4969 30.1793 28.5131C30.0136 28.5096 29.8445 28.5058 29.6723 28.4982V24.9846C29.776 24.972 29.882 24.9593 29.9895 24.9472C30.4406 24.8945 30.9073 24.8401 31.3787 24.7581C32.4198 24.5768 33.0055 23.9929 32.9449 23.1963C32.8694 22.1957 32.1165 21.9368 31.3908 21.8153C31.2563 21.7928 31.1225 21.767 30.9881 21.7414C30.7814 21.7019 30.5748 21.6621 30.3666 21.6335C30.1315 21.6006 29.8956 21.5804 29.6225 21.5576L29.4312 21.5407V18.0346L29.7532 17.9448C30.1768 17.8266 30.6354 17.6992 31.0915 17.5633C31.5894 17.4152 32.7553 17.0687 32.6378 15.8284C32.5283 14.6658 31.4799 14.5223 30.7849 14.4274C30.3731 14.3712 29.958 14.3479 29.5185 14.3236C29.3851 14.3158 29.2485 14.3082 29.108 14.2983L28.8591 10.8148C29.0257 10.7895 29.189 10.7655 29.3496 10.7417C29.8697 10.6657 30.361 10.5921 30.8521 10.4992C32.3463 10.2162 32.4973 9.32801 32.4541 8.82379C32.3519 7.62222 31.2725 7.43815 30.8113 7.35942C30.5702 7.31867 30.326 7.28911 30.0899 7.26076C29.9439 7.24304 29.7977 7.22532 29.6522 7.20507C29.4271 7.17368 29.2024 7.13898 28.9305 7.09747L28.6899 7.06051L28.524 4.02175L37.6896 3.71173C37.7679 5.35399 37.8469 6.99488 37.9267 8.63445C38.698 24.5591 39.4954 41.0235 38.9945 57.2942L30.0736 57.6453L30.0728 53.5171Z" fill="#363636"/>
<path d="M10.2002 45.4008C10.2649 47.5164 10.4413 49.6269 10.7288 51.7235C11.0198 53.9389 12.3682 55.5986 14.6278 56.524C15.4287 56.8617 16.2872 57.0394 17.1555 57.0472C18.5694 57.0533 19.931 56.5103 20.9565 55.5318C22.6573 53.9394 23.6158 51.9331 23.6553 49.8836C23.6787 48.6608 23.6101 47.4207 23.5436 46.2219C23.5071 45.5615 23.4681 44.8789 23.4474 44.2086C23.3246 40.4371 23.208 36.6628 23.0653 32.0516L22.871 25.7836L22.8327 23.5614C22.7804 20.5761 22.7086 16.4876 22.6565 12.3852C22.6602 11.4682 22.3703 10.5743 21.8297 9.83579C21.257 9.03314 20.7093 8.18849 20.1797 7.37167C19.8985 6.93807 19.6173 6.50472 19.3311 6.07467L18.8597 5.3659C18.1229 4.25647 17.3607 3.10909 16.588 1.99535C15.9675 1.10183 15.3271 0.925924 14.9 0.940098C14.4728 0.954273 13.8513 1.15675 13.289 2.06951C12.9815 2.60722 12.7275 3.17409 12.5305 3.76189L12.443 3.99932C11.6639 6.10757 10.8572 8.28769 10.1128 10.4494C9.84502 11.1545 9.69411 11.899 9.66606 12.6533C9.64567 15.2549 9.66452 18.0114 9.7277 21.5908L9.76648 23.7813C9.89032 30.8668 10.0197 38.1944 10.2002 45.4008ZM13.9135 9.45487L14.4355 7.87865C14.6832 7.85992 14.9269 7.82676 15.1638 7.79436C15.7382 7.71538 16.2809 7.64248 16.6295 7.82347C17.0179 8.02596 17.3013 8.49857 17.63 9.04607C17.7106 9.18073 17.7926 9.31742 17.879 9.45487H13.9135ZM17.9913 53.3387C17.5928 53.4063 17.1846 53.3886 16.7934 53.2868C16.4022 53.1851 16.0367 53.0016 15.7208 52.7482C14.7424 51.9422 14.3525 50.8642 14.0862 49.407L20.5094 48.8587C20.555 50.0861 20.225 51.2983 19.564 52.3313C19.3897 52.6034 19.1589 52.8343 18.8875 53.0081C18.6161 53.182 18.3104 53.2949 17.9915 53.3387H17.9913ZM14.1224 45.2229L13.2895 13.6122H18.6797L19.6896 45.2229H14.1224Z" fill="#363636"/>
</g>
<defs>
<clipPath id="clip0_550_440">
<rect width="33.2263" height="61.7619" fill="white" transform="translate(9.43579)"/>
</clipPath>
</defs>
</svg>
