<svg width="87" height="80" viewBox="0 0 87 80" fill="none" xmlns="http://www.w3.org/2000/svg">
<path d="M86.6331 41.4309C86.7249 48.1515 85.5481 54.8296 83.1638 61.1189C78.9959 72.0806 71.1825 78.402 59.3714 79.4818C47.7717 80.5442 36.6945 78.8456 26.8089 72.425C14.81 64.621 8.74008 49.3458 12.0451 35.4539C15.1739 22.2858 23.6624 14.2133 36.5066 10.2209C40.2558 8.95204 43.9054 7.40882 47.4254 5.60387C56.9235 1.03939 67.4138 4.23218 74.2116 9.94653C83.0933 17.412 86.7681 28.4321 86.6331 41.4309Z" fill="#FF6F61"/>
<g clip-path="url(#clip0_550_444)">
<path d="M65.8672 28.7778C65.896 23.6721 65.7368 19.2064 65.3811 15.126C64.8831 9.4137 61.709 6.2667 56.2024 6.02294C53.8641 5.91953 51.4836 5.99836 49.1814 6.07223C48.1349 6.10646 47.0528 6.14213 45.9893 6.15986C45.6456 6.16552 45.3038 6.16375 45.0091 6.16227H44.851C44.7309 5.8188 44.616 5.48396 44.5031 5.1555C44.2264 4.35109 43.9629 3.59005 43.6756 2.83612C43.6648 2.79845 43.6547 2.76031 43.6439 2.72288C43.5084 2.20118 43.2287 1.72843 42.8373 1.35904C42.1132 0.516713 41.1134 0.107697 39.8439 0.139952C38.1209 0.185011 36.3683 0.217017 34.6733 0.247795C32.0762 0.295069 29.3904 0.343853 26.7499 0.441357C25.3319 0.493556 24.5557 0.741304 24.0533 1.37286C23.7226 1.56929 23.4517 1.85256 23.27 2.1922C22.6409 3.53339 22.2795 4.98504 22.2061 6.46537H21.7796C21.1022 6.46537 20.4765 6.46348 19.8506 6.46742C19.101 6.4716 18.3511 6.4716 17.6012 6.47185C15.7766 6.47185 13.8895 6.47182 12.0339 6.53436C9.77357 6.61788 7.54883 7.12517 5.47478 8.03011C2.55626 9.28584 1.09747 11.3489 1.01472 14.3346C0.958741 16.3637 0.880182 18.4268 0.80431 20.4217C0.738504 22.1507 0.67032 23.9386 0.617037 25.698C0.588554 26.6445 0.586983 27.607 0.585264 28.5377C0.582317 30.1734 0.579189 31.8649 0.429163 33.5097C0.0493091 37.672 0.116314 41.012 0.640057 44.0206C1.11346 46.7387 2.3834 48.9352 4.31337 50.3731C6.07042 51.7195 8.20391 52.48 10.4142 52.548C11.5688 52.5808 12.7235 52.6165 13.878 52.6549C16.7467 52.7472 19.7128 52.8425 22.6325 52.8654C28.8191 52.9146 34.6205 52.9392 40.1904 52.9392C42.7423 52.9392 45.2508 52.9341 47.7153 52.924C50.5005 52.9129 53.5101 52.7841 56.9175 52.53C61.2144 52.2099 64.1347 49.8462 65.3599 45.6922C65.7771 44.3018 65.9996 42.8597 66.0209 41.408C66.033 39.2964 65.988 37.1508 65.9448 35.0759C65.9001 33.0106 65.8545 30.8763 65.8672 28.7778ZM62.2663 35.4984C62.2889 37.5081 62.3125 39.518 62.3371 41.5279C62.3562 43.0924 61.9904 44.6376 61.2719 46.0266C60.6175 47.3069 59.6513 48.067 58.3929 48.2839C57.0098 48.5614 55.6068 48.7264 54.1973 48.7779C49.2096 48.815 44.1377 48.8094 39.2323 48.8047C37.4599 48.8027 35.6881 48.8015 33.9163 48.8008C32.1049 48.8008 30.2943 48.8015 28.4844 48.803C24.1112 48.8062 19.59 48.8099 15.1437 48.7852C13.4735 48.7729 11.8051 48.672 10.1455 48.4826C7.06317 48.135 4.87367 45.9818 4.28903 42.7233C3.63933 39.1038 3.71378 35.3906 3.78547 31.8006C3.798 31.174 3.81008 30.5479 3.81941 29.922C3.83429 28.8642 3.85671 27.8027 3.88666 26.7381C4.54609 26.8681 5.21443 26.9481 5.88589 26.9772C7.48928 27.0308 9.11892 27.0264 10.6953 27.0222C11.4462 27.0205 12.1968 27.018 12.9469 27.0222C13.2384 27.024 13.5261 27.0407 13.8593 27.0599C13.9487 27.0653 14.0403 27.0705 14.1351 27.0757C14.1351 27.3768 14.1332 27.6698 14.1317 27.9569C14.128 28.7448 14.1243 29.4889 14.1397 30.2342C14.1729 31.826 14.8311 32.5844 16.3407 32.7703C17.7677 32.9259 19.2024 32.9988 20.6377 32.9887H20.6886C23.4517 32.9887 24.4945 31.923 24.5291 29.0737C24.5353 28.5715 24.5336 28.0684 24.5319 27.5558V27.0823H42.9807C42.9807 27.1424 42.9807 27.2017 42.9807 27.2601C42.9788 27.5666 42.9768 27.851 42.9851 28.1337C43.0004 28.6525 43.0156 29.0848 43.0608 29.5332C43.2302 31.2193 43.9693 31.9371 45.6144 32.0104C46.9268 32.069 48.3328 32.0597 49.7923 31.9801C51.2187 31.9033 52.0825 31.0987 52.2902 29.6529C52.3801 29.026 52.4191 28.3853 52.4601 27.7077C52.4753 27.4578 52.4911 27.1998 52.5092 26.9306L54.5657 26.9319C56.5933 26.9331 58.5771 26.9348 60.5603 26.9252C61.0951 26.9282 61.6297 26.9035 62.162 26.8514C62.201 29.757 62.2339 32.6555 62.2663 35.4984ZM29.1181 3.54546C30.8161 3.48267 32.538 3.45906 34.2281 3.44207C36.0164 3.48614 37.8535 3.53 39.6654 3.55856C39.8167 3.55814 39.9674 3.57397 40.1152 3.60581C40.2871 3.79013 40.3979 4.02357 40.4315 4.27378C40.5459 4.77063 40.695 5.25879 40.8776 5.73464C40.9115 5.94902 40.9486 6.16319 40.9891 6.37725H25.616C26.2369 3.65256 26.2779 3.65084 29.1194 3.5457L29.1181 3.54546ZM49.1131 27.0793C49.1038 27.1589 49.0947 27.2377 49.0856 27.3162C49.0503 27.7107 48.9864 28.1019 48.8953 28.4872C48.8342 28.6475 48.7144 28.7785 48.5602 28.8531C47.8184 28.9332 47.07 28.9686 46.2781 29.0063C46.0682 29.0161 45.8558 29.0262 45.6397 29.0373L45.4187 27.0793H49.1131ZM20.9612 27.1067V29.4598H17.154L16.8449 27.2291C17.6454 26.9368 19.5862 26.8772 20.9624 27.1067H20.9612ZM61.8227 23.2001C61.7402 23.206 61.6579 23.2117 61.5754 23.2152C61.1445 23.2329 60.7138 23.2537 60.2829 23.2747C59.3476 23.32 58.3801 23.3666 57.4306 23.3791C53.0155 23.4379 48.6004 23.4924 44.1853 23.5427C40.2446 23.5894 36.3039 23.6377 32.3635 23.6874C24.8079 23.7859 17.2524 23.8893 9.69718 23.9978L3.96494 24.0781C4.02657 22.2438 4.0983 20.4168 4.16926 18.6204C4.20658 17.6783 4.24339 16.7365 4.27955 15.795C4.41559 12.2095 5.07013 11.3718 8.40066 10.5224C10.4519 9.99146 12.5587 9.70597 14.677 9.67189C19.0737 9.61846 23.5452 9.62592 27.87 9.63281C31.3921 9.63872 35.0347 9.64488 38.6172 9.6178C40.6552 9.60278 42.7222 9.50941 44.7221 9.41929C46.3125 9.34764 47.9569 9.27355 49.5733 9.23957C51.7898 9.19255 54.0824 9.14426 56.3296 9.37842C59.6248 9.72141 61.1423 11.2568 61.5663 14.6776C61.8258 16.5452 61.9882 18.4251 62.0527 20.3097C62.0709 21.2654 62.0881 22.2235 62.1038 23.1841C62.0098 23.1876 61.9157 23.1942 61.8239 23.2001H61.8227Z" fill="#363636"/>
</g>
<defs>
<clipPath id="clip0_550_444">
<rect width="66.0509" height="53.1838" fill="white"/>
</clipPath>
</defs>
</svg>
