<svg width="93" height="85" viewBox="0 0 93 85" fill="none" xmlns="http://www.w3.org/2000/svg">
<path d="M92.6378 46.5778C92.7296 53.2984 91.5528 59.9765 89.1684 66.2657C85.0005 77.2275 77.1871 83.5489 65.3761 84.6287C53.7764 85.691 42.6991 83.9925 32.8135 77.5718C20.8146 69.7679 14.7447 54.4926 18.0497 40.6008C21.1786 27.4327 29.667 19.3602 42.5112 15.3677C46.2605 14.0989 49.9101 12.5557 53.43 10.7507C62.9282 6.18624 73.4184 9.37903 80.2162 15.0934C89.098 22.5588 92.7728 33.5789 92.6378 46.5778Z" fill="#FF6F61"/>
<g clip-path="url(#clip0_550_441)">
<path d="M27.0718 43.8143C29.6356 44.5247 32.3894 44.8061 34.9833 45.0042C35.3154 45.0295 35.6452 45.0421 35.9725 45.0421C37.9426 45.0457 39.8839 44.568 41.6243 43.6508C46.5339 41.0848 49.1596 36.7708 49.8855 30.0712V30.0596V30.0483C49.5494 22.1922 46.6174 17.7301 40.38 15.5795C38.4679 14.9737 36.4912 14.5902 34.4901 14.4367C31.1602 14.1112 27.2177 15.3781 23.9469 17.8256C20.2455 20.5956 17.903 24.4997 17.3513 28.8186C16.4161 36.1487 20.1403 41.894 27.0718 43.8143ZM20.3512 29.6436C20.7476 22.4359 26.2762 18.2639 31.3182 16.7625C31.653 16.6678 32.0002 16.6221 32.3489 16.6267C33.4375 16.6267 34.6673 16.9907 35.6914 17.3428C37.5555 18.0323 39.352 18.8896 41.0594 19.904C42.5598 20.7636 43.7364 22.0866 44.411 23.6718C46.645 28.7804 46.006 33.663 42.5126 38.1832C40.7455 40.4693 38.0856 41.6043 34.3811 41.6523C33.6919 41.5279 32.9882 41.416 32.3089 41.308C30.7848 41.0932 29.2729 40.7996 27.7796 40.4284C21.2464 38.6743 20.134 33.5958 20.3512 29.6436Z" fill="#363636"/>
<path d="M36.4355 51.5898C36.2754 51.0906 35.7637 50.4688 35.2856 50.3749C34.9051 50.3009 34.4017 50.5118 33.7461 51.0217C33.4818 51.227 33.399 51.6372 33.3257 51.9992L33.3089 52.0818C32.7617 54.7397 33.0629 57.4074 33.4698 59.8945C33.5242 60.1598 33.6167 60.4158 33.7446 60.6545C34.0786 61.3428 34.5666 61.7173 35.1 61.7173C35.2405 61.7167 35.3799 61.6922 35.512 61.6445C35.7994 61.5227 36.0598 61.3458 36.2781 61.1238C36.4962 60.9015 36.6679 60.639 36.7836 60.3504C37.0097 59.7421 36.9596 59.0114 36.9151 58.3663L36.9124 58.3254C36.8322 57.16 36.7199 55.9892 36.6121 54.8569C36.5688 54.4058 36.5265 53.9582 36.4851 53.5143C36.4851 53.3117 36.498 53.1112 36.5106 52.9145C36.5679 52.4724 36.5424 52.023 36.4355 51.5898Z" fill="#363636"/>
<path d="M54.7389 29.9664C54.7689 30.849 55.363 31.3296 56.506 31.3959C57.3769 31.4463 58.2496 31.489 58.9001 31.5209L59.4951 31.5507H59.5029C60.1257 31.5507 60.6925 31.5588 61.2201 31.5663C61.6778 31.5728 62.1097 31.5791 62.5256 31.5791C63.1085 31.5791 63.6602 31.5669 64.2074 31.5269C65.4123 31.4389 66.1748 30.781 66.149 29.8486C66.1256 28.985 65.4105 28.4145 64.135 28.2423C64.0251 28.2245 63.9137 28.2161 63.8023 28.2173L62.9767 28.2453C60.7928 28.3197 58.6088 28.396 56.4249 28.4742C55.3071 28.515 54.7086 29.0449 54.7389 29.9664Z" fill="#363636"/>
<path d="M53.6536 49.9759C52.17 48.7153 50.5504 47.366 48.7016 45.8503C47.9703 45.2509 47.2721 45.1898 46.6846 45.6713C45.9666 46.2585 46.1843 47.0501 46.4546 47.6737C46.5624 47.9294 46.721 48.1609 46.9213 48.3542L47.4174 48.8119C48.7671 50.057 50.1624 51.3439 51.5739 52.5675C51.8565 52.7835 52.1778 52.9437 52.5208 53.0398C52.6202 53.0735 52.7085 53.1033 52.7767 53.1338L52.8382 53.1475H52.8797C53.6323 53.1475 54.2029 52.8951 54.4891 52.4344C54.6152 52.2085 54.6786 51.9537 54.6726 51.6956C54.6669 51.4376 54.5921 51.1857 54.4561 50.9658C54.2539 50.5887 53.9815 50.2527 53.6536 49.9759Z" fill="#363636"/>
<path d="M33.1455 1.93911C33.2548 3.44316 33.3032 4.97826 33.3497 6.46293L33.3542 6.61211C33.3645 6.93226 33.3524 7.26109 33.3407 7.57885C33.3287 7.90944 33.3161 8.25104 33.3278 8.58909C33.3633 9.59667 33.908 10.2229 34.8213 10.3077C34.885 10.3135 34.9471 10.3163 35.0081 10.3163C35.819 10.3163 36.4268 9.80407 36.6503 8.91404C36.7554 8.43791 36.813 7.95256 36.8218 7.46514C36.829 7.31119 36.8356 7.17218 36.8464 7.05432V7.03967V7.02505C36.8109 6.67089 36.7863 6.34508 36.7623 6.04044C36.7308 5.46143 36.6626 4.88496 36.5587 4.31439C36.3442 3.2187 36.0499 2.13993 35.6781 1.08668C35.3754 0.255429 34.6811 -0.117532 33.9062 0.137273C33.0251 0.426987 33.0834 1.14993 33.1347 1.78784L33.1455 1.93911Z" fill="#363636"/>
<path d="M9.22377 52.6225C9.50337 52.9578 9.9986 53.1336 10.6608 53.1336C10.7026 53.1336 10.7452 53.1336 10.7884 53.1312H10.8263L10.8596 53.1127C10.9266 53.0748 11.0161 53.0354 11.1176 52.9901C11.4773 52.8528 11.8071 52.6478 12.0888 52.3865C13.3631 51.0522 14.6671 49.6057 16.0759 47.9647C16.6982 47.2397 16.7066 46.4206 16.0999 45.8269C15.6843 45.4208 14.9779 45.1272 13.9737 46.0334C12.512 47.3524 11.0948 48.6957 9.76135 50.0267C9.39024 50.4125 9.13145 50.8911 9.01265 51.4114C8.95066 51.6158 8.93748 51.8315 8.97412 52.0419C9.01079 52.2519 9.09626 52.4509 9.22377 52.6225Z" fill="#363636"/>
<path d="M14.9384 17.6605C15.2277 17.9436 15.6176 18.1022 16.0237 18.1021C16.135 18.1063 16.2457 18.0841 16.3466 18.0373C16.6437 17.8236 16.8679 17.5248 16.9893 17.181C17.062 17.0336 17.137 16.8826 17.2217 16.7421L17.2644 16.6726L17.2298 16.5986C17.1313 16.387 17.046 16.1758 16.9629 15.9699C16.8095 15.5339 16.5995 15.1197 16.3382 14.7377C15.2162 13.2527 14.017 11.7883 12.8572 10.3723L12.6187 10.0811C12.42 9.79339 12.1166 9.59357 11.7726 9.52373C11.4285 9.45388 11.0705 9.51943 10.7741 9.70659C10.6253 9.78835 10.4956 9.90038 10.3934 10.0354C10.2913 10.1705 10.219 10.3254 10.1813 10.4901C10.1454 10.672 10.147 10.8593 10.1859 11.0406C10.2247 11.2219 10.3001 11.3935 10.4074 11.5452C11.7778 13.5132 13.2599 15.5149 14.9384 17.6605Z" fill="#363636"/>
<path d="M50.4968 13.9138C50.7551 14.0497 51.0455 14.1143 51.3377 14.1009C51.6645 14.0935 51.9903 14.0584 52.311 13.9958C52.6534 13.9362 52.9552 13.5853 53.2057 13.2499C54.3112 11.7706 55.4644 10.1911 56.6342 8.55572C56.7726 8.3477 56.8855 8.12405 56.9708 7.88947C57.0009 7.81488 57.0282 7.74655 57.0555 7.68957L57.0699 7.62989C57.0865 7.44031 57.0558 7.24957 56.9804 7.0746C56.9051 6.89961 56.7876 6.7458 56.6381 6.62681C56.5053 6.5362 56.3522 6.47975 56.1924 6.46244C56.0323 6.44517 55.8705 6.46761 55.7215 6.52773C55.3764 6.68118 55.0689 6.90719 54.8205 7.19013C53.6934 8.35376 52.4834 9.62328 51.0128 11.1882C50.7593 11.4552 50.5349 11.7477 50.3427 12.0609C50.0881 12.433 49.9833 12.8862 50.0484 13.3314C50.0794 13.4537 50.1349 13.5685 50.2121 13.6686C50.289 13.7688 50.386 13.8522 50.4968 13.9138Z" fill="#363636"/>
<path d="M1.36585 32.9082C2.11125 33.0479 2.87526 33.1469 3.61375 33.2406C3.92878 33.2809 4.24442 33.3212 4.55735 33.3647L4.71652 33.3868L4.73274 33.2224L5.05288 33.2248C5.40846 33.2281 5.77576 33.2314 6.13764 33.217C6.50416 33.2009 6.86911 33.1598 7.22991 33.0938C8.10565 32.936 8.78828 32.5669 9.05556 32.1068C9.12091 32.0009 9.16149 31.8816 9.17434 31.758C9.18717 31.6342 9.17194 31.5092 9.12974 31.3922C8.73933 30.3104 7.6882 30.3366 6.92689 30.3542L5.20755 30.3939C4.0411 30.4202 2.87496 30.4461 1.70881 30.4807C1.24422 30.4945 0.277481 30.5231 0.147142 31.4952C0.0471351 32.2184 0.503329 32.7471 1.36585 32.9082Z" fill="#363636"/>
</g>
<defs>
<clipPath id="clip0_550_441">
<rect width="66.371" height="61.7619" fill="white"/>
</clipPath>
</defs>
</svg>
