<svg width="64" height="63" viewBox="0 0 64 63" fill="none" xmlns="http://www.w3.org/2000/svg">
<path d="M63.8009 12.5243C63.7194 10.5555 63.5247 8.56218 63.3362 6.63463C63.2429 5.68274 63.1467 4.69823 63.0655 3.7304C62.8632 1.31667 61.7443 0.0963779 59.645 0H59.6331L56.7494 0.00123496C56.519 0.0240013 56.289 0.0499119 56.0588 0.0757137C55.5759 0.129341 55.0766 0.185126 54.5876 0.212446C53.0941 0.29508 51.6004 0.374527 50.1067 0.450584C46.7762 0.623608 43.3324 0.802693 39.9481 1.04123C39.167 1.09613 37.7193 1.30323 36.802 2.07172L35.4993 3.1615C32.0021 6.08394 28.3861 9.10609 25.095 12.3559C19.9622 17.4252 14.8527 22.6884 9.91143 27.7782C7.823 29.9296 5.73186 32.0783 3.63801 34.2241C3.5811 34.2823 3.52646 34.3455 3.47207 34.409C3.38437 34.5277 3.27568 34.6294 3.15135 34.709C1.82887 35.3599 1.19394 36.5508 0.579758 37.7028L0.442657 37.9591C0.106322 38.529 -0.0444083 39.1892 0.0113411 39.8487C0.0670903 40.5079 0.326554 41.1334 0.753792 41.6389C5.50589 47.7706 10.2428 53.6909 15.9359 58.7194C17.6669 60.2478 19.688 61.4544 21.437 62.4334C21.9836 62.7751 22.609 62.9704 23.253 63C24.1434 63 24.8719 62.5037 25.7009 61.698C26.4057 61.012 27.1074 60.3222 27.8056 59.6288C29.3562 58.0969 30.9597 56.5131 32.5908 55.0176C36.4358 51.4911 40.363 47.9231 44.1604 44.4728C47.636 41.3146 51.2298 38.0491 54.7523 34.8236C56.799 32.9497 58.8277 30.99 60.7897 29.0946C61.3472 28.5563 61.905 28.0183 62.4635 27.4802C63.511 26.473 64.0093 25.3604 63.9866 24.0789C63.9613 22.7226 63.9522 21.3419 63.9418 20.0063C63.9236 17.5538 63.9041 15.0165 63.8009 12.5243ZM60.563 22.7216C60.585 23.1597 60.5066 23.597 60.3343 24.0002C60.1618 24.4035 59.8995 24.7621 59.5676 25.0488C51.6533 32.3593 45.6007 37.9649 39.9428 43.2272C36.523 46.4076 33.0572 49.6524 29.7055 52.7916C27.9009 54.4808 26.0966 56.1693 24.2922 57.8573C24.0243 58.1075 23.7493 58.3504 23.4134 58.6471C23.2808 58.7639 23.1387 58.8897 22.9833 59.0265C22.587 58.7505 22.1787 58.4814 21.782 58.2198C20.7795 57.594 19.8257 56.8933 18.9289 56.1236C13.1956 50.927 8.2639 44.9481 4.19607 39.7852C3.77565 39.2514 3.72301 38.7941 4.02555 38.3018L4.1394 38.1164C4.47232 37.5202 4.87233 36.9639 5.3316 36.4585C6.77752 35.0025 8.22292 33.5457 9.66783 32.0881C16.1889 25.513 22.932 18.7137 29.6443 12.1092C31.1699 10.6081 32.8657 9.22109 34.5059 7.8799C35.5684 7.01199 36.6644 6.11449 37.7097 5.19195C38.8409 4.19251 40.1707 4.12305 41.5787 4.04969C41.7471 4.04084 41.9151 4.03191 42.0823 4.02154C46.29 3.7582 50.5742 3.56621 54.7166 3.37851C55.9933 3.32117 57.2697 3.26309 58.5462 3.20422C58.5882 3.2022 58.6301 3.20152 58.6726 3.20152C58.8616 3.20152 59.0637 3.21915 59.3248 3.24191C59.4424 3.25229 59.5704 3.26375 59.7115 3.27462C59.794 4.43421 59.8788 5.58447 59.966 6.72564C60.1846 9.63771 60.3912 12.3881 60.5291 15.1998C60.605 16.7226 60.587 18.2791 60.5706 19.7844C60.561 20.7469 60.5499 21.7419 60.563 22.7216Z" fill="#4E4D4D"/>
<path d="M47.6585 8.92057H47.5573C45.9907 8.9402 44.4947 9.57427 43.3913 10.6862C42.0931 11.9513 41.3502 13.6799 41.3257 15.4924C41.2958 19.1067 44.2878 21.9995 48.1373 22.0779C48.1968 22.0793 48.2557 22.0799 48.3144 22.0798C50.1878 22.1225 52.0038 21.4319 53.3754 20.155C53.9939 19.5468 54.4848 18.8213 54.8198 18.0212C55.1547 17.221 55.3269 16.3621 55.3262 15.4947C55.3768 11.7059 52.2229 9.00253 47.6585 8.92057ZM44.9281 13.6231C45.1527 13.0622 45.3518 12.622 45.6981 12.4862C45.7805 12.4545 45.8683 12.4389 45.9566 12.44C46.1971 12.4529 46.4319 12.5179 46.6449 12.6305C46.6846 12.6492 46.7286 12.6575 46.7726 12.6547C46.8166 12.6518 46.8589 12.6378 46.8961 12.6141C46.9333 12.5903 46.9636 12.5575 46.9846 12.5188C47.0056 12.4801 47.0162 12.4367 47.016 12.3927V12.3747C47.2376 12.4455 47.4604 12.5139 47.6833 12.5819C48.432 12.7899 49.1639 13.0554 49.8719 13.3761C51.2181 14.0318 51.3009 15.2379 51.1329 16.1334C50.9133 17.3089 50.2356 17.9534 49.0007 18.1611C47.3038 18.447 46.1124 18.0865 45.2508 17.0269C44.4902 16.0932 44.3855 14.9794 44.9281 13.6223V13.6231Z" fill="#4E4D4D"/>
</svg>
