<svg width="63" height="63" viewBox="0 0 63 63" fill="none" xmlns="http://www.w3.org/2000/svg">
<path d="M59.8386 3.41668L60.1234 3.36163C60.4499 3.29837 60.7579 3.23855 61.0588 3.16814C61.3854 3.10197 61.6802 2.92784 61.8959 2.67382C62.1117 2.41977 62.236 2.10055 62.2489 1.76731C62.2616 1.43407 62.1625 1.10618 61.9668 0.836253C61.7711 0.566328 61.4906 0.370008 61.1701 0.278834C60.5409 0.0912272 59.8878 -0.00274264 59.2313 6.09246e-05C57.5827 0.0400286 55.9077 0.0983848 54.2869 0.154762C52.086 0.230992 49.8103 0.310085 47.5726 0.34423C37.4517 0.499336 26.3962 0.641259 13.7734 0.777837C10.9803 0.808276 8.14295 0.738047 5.63956 0.676639C4.84212 0.657052 4.02855 0.591905 3.24221 0.529174C2.73746 0.488942 2.2327 0.449888 1.72769 0.419449C0.64918 0.358571 0.231683 0.948803 0.0738332 1.457C-0.162016 2.21665 0.176427 2.94049 0.956685 3.34652C1.18711 3.46131 1.42397 3.56266 1.66608 3.65011L1.81414 3.70736C1.81414 4.21768 1.81521 4.72514 1.81733 5.22981C1.82023 6.4172 1.82366 7.64487 1.81176 8.84522C1.77951 12.1594 1.70601 15.5296 1.63383 18.7887C1.43156 27.9965 1.22267 37.5178 1.92467 46.8866C2.04233 48.4565 2.54841 49.0092 4.00687 49.1614C5.23156 49.3016 6.46374 49.366 7.69637 49.3546C11.2457 49.2775 14.8535 49.1727 18.3426 49.0716C19.769 49.0298 21.1956 48.9888 22.6225 48.9488C22.8245 48.943 23.0271 48.944 23.2875 48.9456C23.2013 49.0515 23.1175 49.1545 23.0366 49.2537C22.6635 49.7108 22.3412 50.1052 22.0419 50.5203C20.1887 53.0877 18.088 55.9993 16.0455 58.9095C15.6854 59.4611 15.4092 60.063 15.2258 60.6956C15.1045 61.0537 15.1046 61.442 15.2262 61.8001C15.3478 62.1583 15.584 62.4661 15.8982 62.676C16.1859 62.8891 16.5348 63.0026 16.8926 63C17.3394 62.9939 17.7713 62.8388 18.1203 62.5595C18.4547 62.2898 18.7544 61.9793 19.0124 61.6355C21.6773 58.2022 24.3367 54.7648 27.0342 51.2783L28.9672 48.7797L36.2997 48.5396L37.7539 50.8638C38.9514 52.7799 40.1288 54.6645 41.3107 56.5464C41.5162 56.8733 41.7205 57.2007 41.9241 57.5286C42.6423 58.6824 43.385 59.8751 44.1755 61.0103C44.6155 61.627 45.1766 62.1477 45.8244 62.5399C46.1803 62.7774 46.6046 62.8893 47.0311 62.8581C47.4576 62.8271 47.8616 62.6548 48.1794 62.3684C48.525 62.086 48.7693 61.6988 48.8756 61.2647C48.9819 60.8308 48.9441 60.3743 48.768 59.9637C48.5229 59.3626 48.217 58.788 47.8547 58.2494C46.4211 56.1065 44.9814 53.9678 43.5351 51.8336C42.8255 50.7833 42.1164 49.7328 41.4078 48.682C41.3771 48.6352 41.3493 48.5862 41.3253 48.5354C41.4456 48.5221 41.5548 48.5115 41.66 48.5089C42.9714 48.4838 44.2829 48.4605 45.5946 48.4388C48.621 48.3858 51.7505 48.3329 54.8281 48.2463C55.5991 48.209 56.3672 48.1254 57.1285 47.9959C57.5251 47.9364 57.9362 47.8747 58.3384 47.8287C59.378 47.7098 60.016 47.0627 60.2344 45.9046C60.3108 45.4163 60.341 44.9219 60.3246 44.4277V44.3671C60.3209 42.4907 60.3196 40.6144 60.3206 38.7375C60.3206 33.9011 60.319 28.9004 60.2595 23.9815C60.2067 19.5789 60.0943 15.104 59.9861 10.7766C59.9354 8.74821 59.8865 6.71979 59.8394 4.69139C59.8323 4.3645 59.8341 4.03716 59.8362 3.69625C59.8373 3.60467 59.8381 3.51144 59.8386 3.41668ZM6.2826 45.2686L6.26277 45.2631L6.24611 45.1609C6.21076 44.9685 6.18699 44.7739 6.17498 44.5786C6.12422 43.2816 6.0693 41.9846 6.01026 40.6877C5.87488 37.607 5.73475 34.4215 5.68636 31.2889C5.61445 26.6648 5.58774 21.9617 5.56236 17.4135C5.5457 14.4832 5.52851 11.4529 5.49943 8.47249C5.48965 7.4598 5.42169 6.44946 5.35004 5.3796C5.32201 4.95981 5.29319 4.53027 5.26702 4.08692C18.8135 4.53557 32.5476 4.24568 45.8323 3.963C49.1902 3.89206 52.6584 3.81877 56.0825 3.75789V43.9918C39.2272 43.7506 22.5342 44.1913 6.46689 45.3038C6.40441 45.2982 6.34267 45.2866 6.2826 45.2686Z" fill="#4E4D4D"/>
<path d="M52.3159 12.1629C52.7417 11.6868 53.0422 11.1082 53.1888 10.4814C53.2631 10.2039 53.27 9.91199 53.2083 9.63116C53.147 9.35033 53.0189 9.0891 52.8359 8.87015C52.6526 8.65123 52.4199 8.48114 52.1575 8.37485C51.8954 8.26858 51.6115 8.22927 51.3309 8.26031C50.7943 8.32281 50.2817 8.52196 49.8402 8.83949C49.257 9.26908 48.7034 9.73891 48.1831 10.2455L48.0464 10.3727C44.0638 14.0719 40.0747 17.7819 36.0794 21.5022L32.4889 24.8429L32.4801 24.8387C31.1219 23.2443 29.4619 21.9886 27.8564 20.7744C27.0592 20.1717 26.2348 19.548 25.4627 18.8936C24.392 17.9871 23.5961 17.9615 22.421 18.7966C21.7793 19.2634 21.1953 19.8074 20.6816 20.417C19.5366 21.748 18.3869 23.1135 17.2752 24.4333C16.3722 25.5058 15.467 26.576 14.5596 27.6438C13.7103 28.6385 12.8561 29.6292 11.9968 30.6155C10.8949 31.8871 9.75549 33.2022 8.65041 34.5105C8.17672 35.0495 7.80293 35.6718 7.54719 36.3473C7.48654 36.6072 7.48432 36.8777 7.54071 37.1387C7.5971 37.3997 7.71062 37.6442 7.87279 37.854C7.97644 37.9802 8.10645 38.0813 8.2533 38.1498C8.40014 38.2183 8.56011 38.2525 8.72156 38.2499C9.03277 38.2415 9.3353 38.1436 9.59441 37.9678C9.80368 37.8306 9.99557 37.6674 10.1657 37.4825L11.1179 36.464C14.4612 32.8924 17.9182 29.1994 21.3072 25.5559C21.8706 24.9503 22.4212 24.3127 23.0045 23.6372C23.2333 23.3724 23.4702 23.0979 23.7186 22.8118C24.1314 23.2537 24.5388 23.6913 24.9409 24.1249C26.1547 25.431 27.3013 26.6653 28.491 27.8922C29.0467 28.4673 29.677 28.9624 30.3644 29.3639C31.3066 29.9074 32.2066 29.9118 32.966 29.3765C33.5744 28.961 34.161 28.5139 34.7239 28.0364L36.4696 26.5135C40.2588 23.2077 44.1768 19.7894 47.9998 16.3909C49.5458 15.0151 50.9881 13.5445 52.3159 12.1629Z" fill="#4E4D4D"/>
</svg>
