<svg width="44" height="74" viewBox="0 0 44 74" fill="none" xmlns="http://www.w3.org/2000/svg">
<g clip-path="url(#clip0_555_1872)">
<path d="M43.6372 40.7547C43.6372 47.6438 43.6495 54.5329 43.627 61.422C43.6327 62.8378 43.5511 64.2525 43.3828 65.6581C43.2989 66.5 43.0319 67.3127 42.6008 68.0386C41.3346 69.9728 39.3931 71.5318 37.0672 72.0215C35.1966 72.4511 33.2917 72.7108 31.375 72.7979C24.9113 72.9646 18.4441 73.0131 11.9777 73.0585C10.6715 73.0675 9.36227 72.8793 8.05667 72.757C4.41647 72.4168 2.51631 70.0215 1.51179 66.8204C1.01066 65.2229 0.916396 63.4883 0.70705 61.8071C-0.0245329 55.934 0.134731 50.0334 0.209015 44.1356C0.26998 39.276 0.320996 34.4163 0.362077 29.5567C0.402596 23.9887 0.359548 18.4193 0.47632 12.8533C0.518431 10.9703 0.765749 9.0977 1.21381 7.26916C2.04247 3.89055 4.37793 2.152 7.73787 1.46976C15.5402 -0.114209 23.3969 0.0985598 31.268 0.514544C34.0537 0.661711 36.5501 1.66456 38.8723 3.18304C40.5141 4.24055 41.7221 5.85947 42.2742 7.74243C42.7218 9.27898 42.9976 10.8612 43.0961 12.4595C43.3589 17.4991 43.5449 22.5427 43.6546 27.5902C43.7438 31.9766 43.6732 36.3664 43.6732 40.7547H43.6372ZM5.13061 57.8872C16.6102 56.8652 28.1385 56.5076 39.6587 56.8164C39.6922 56.2249 39.7384 55.7636 39.7412 55.3019C39.8127 44.1206 39.6005 32.6557 39.6602 21.4732C39.6649 20.9081 39.6275 20.3434 39.5476 19.784C39.1728 17.2209 39.0864 14.9397 38.6537 12.3865C38.4553 11.2791 38.1854 10.1858 37.8458 9.11369C37.6716 8.54975 37.3745 8.03223 36.9764 7.59883C36.5782 7.16544 36.0889 6.82712 35.5441 6.60873C33.9681 5.87289 32.2579 5.47338 30.5212 5.43515C28.694 5.40141 26.8635 5.42347 25.0399 5.33784C19.5364 5.07923 14.0942 5.5726 8.67148 6.49644C6.94523 6.79049 6.00204 7.73389 5.6371 9.36748C5.48974 10.0107 5.39565 10.6651 5.35572 11.324C5.28903 12.5481 5.26511 13.7755 5.25667 15.0016C5.18613 25.3799 5.11936 35.759 5.05633 46.1384C5.03663 49.1575 4.99358 52.1765 4.98599 55.1956C4.9857 56.0298 5.07349 56.8644 5.13061 57.8872ZM39.4649 60.0737L5.28988 60.4797C5.51301 62.6348 5.40918 64.6223 6.01611 66.5125C6.48236 67.964 7.48125 68.8904 9.10903 68.9179C9.71765 68.9284 10.3254 68.9772 10.9338 68.9795C12.9009 68.9868 14.8677 68.9829 16.8348 68.9795C22.127 68.9718 27.4198 69.0019 32.7107 68.9273C34.1111 68.8981 35.5028 68.6982 36.8554 68.3318C38.1019 68.0006 39.2792 67.2078 39.4196 65.8169C39.603 64.0052 39.4649 62.1615 39.4649 60.074V60.0737Z" fill="#4E4D4D"/>
<path d="M25.4054 64.2512C25.4012 65.7637 23.9799 67.0788 22.315 67.1106C21.9514 67.1202 21.5895 67.0556 21.2513 66.9203C20.9131 66.7853 20.6055 66.5829 20.347 66.3248C20.0885 66.0668 19.8844 65.7588 19.7471 65.4194C19.6098 65.08 19.5421 64.7159 19.548 64.3493C19.5729 63.5641 19.8922 62.8175 20.4417 62.26C20.9911 61.7025 21.7298 61.3756 22.5089 61.3452C23.9695 61.3265 25.4088 62.7713 25.4054 64.2512Z" fill="#4E4D4D"/>
</g>
<defs>
<clipPath id="clip0_555_1872">
<rect width="43.8951" height="73.1585" fill="white" transform="translate(0 0.0446472)"/>
</clipPath>
</defs>
</svg>
