<svg width="60" height="64" viewBox="0 0 60 64" fill="none" xmlns="http://www.w3.org/2000/svg">
<g clip-path="url(#clip0_550_130)">
<path d="M51.59 22.168C51.1718 22.8927 50.8957 23.5679 50.4512 24.1058C49.0042 25.8576 47.4917 27.5555 46.0121 29.2808C36.8668 39.9425 26.7705 49.696 16.7371 59.5086C15.9427 60.2861 15.1065 61.0278 14.2403 61.7255C13.7504 62.1171 13.2081 62.4393 12.6289 62.6826C12.1837 62.8895 11.6824 62.9453 11.2021 62.8416C10.7219 62.7379 10.2893 62.4799 9.97099 62.1078C7.00745 59.0513 4.0474 55.9921 1.09069 52.93C0.0766865 51.8737 -0.0305884 51.2013 0.861417 49.9863C2.23064 48.1212 3.59393 46.2206 5.19892 44.5635C9.87657 39.7339 14.5862 34.9282 19.446 30.281C24.7268 25.2312 30.1835 20.3629 35.5801 15.4335C36.7229 14.3904 37.9179 13.4001 39.1266 12.4303C40.182 11.5826 40.5352 11.6621 41.69 12.4213C45.0475 14.6289 47.7229 17.5625 50.437 20.4534C50.8781 20.9253 51.1712 21.5373 51.59 22.168ZM11.7561 58.7627L39.4815 30.1555L32.8808 23.0049C23.1119 32.3031 13.0278 41.2399 4.05378 51.393L11.7561 58.7627ZM42.298 27.0314L46.9572 22.0901C44.9817 19.6885 42.7343 17.5207 40.2597 15.6297L35.3977 20.4661C37.8056 22.7571 40.066 24.9081 42.298 27.0314Z" fill="#4E4D4D"/>
<path d="M53.2285 6.17061C52.5703 6.00316 52.0085 5.88078 51.4592 5.71474C51.2226 5.65046 51.0149 5.50816 50.8702 5.31116C50.7255 5.11413 50.6526 4.87415 50.6634 4.63055C50.6461 4.05461 50.8441 3.5562 51.4274 3.37155C52.0652 3.16942 52.7325 3.05635 53.5321 2.87029C53.637 2.4356 53.7573 1.93493 53.879 1.43426C54.104 0.507915 54.4513 0.165696 55.179 0.153292C55.894 0.140888 56.2855 0.489585 56.5292 1.39789C56.5951 1.71331 56.6444 2.03192 56.6768 2.35243C57.0385 2.38513 57.4102 2.40151 57.7762 2.45535C58.6747 2.58757 59.1585 3.03495 59.2484 3.78877C59.3398 4.5581 59.0149 5.12558 58.2063 5.49685C57.8182 5.65252 57.4215 5.78589 57.0181 5.89629C56.9239 6.47623 56.7965 7.05036 56.6368 7.61592C56.3377 8.48984 55.7856 8.91273 55.0882 8.91047C54.3531 8.91047 53.696 8.37482 53.4489 7.5119C53.3493 7.06942 53.2759 6.62158 53.2285 6.17061Z" fill="#4E4D4D"/>
<path d="M29.611 10.2272C29.4487 12.0942 29.0098 12.7308 27.9421 12.7218C26.9374 12.7133 26.4952 12.0812 26.2197 10.2167C25.7399 10.0828 25.2307 9.95144 24.7285 9.79808C24.4667 9.72929 24.2393 9.56779 24.089 9.34396C23.9388 9.12009 23.8761 8.84938 23.9128 8.5828C23.9197 8.33783 24.0128 8.10294 24.1761 7.91919C24.3392 7.73545 24.5622 7.61442 24.806 7.57724C25.3144 7.44362 25.8465 7.39933 26.4355 7.30517C26.5507 6.94095 26.6909 6.58859 26.7715 6.22324C26.9133 5.58472 27.2742 5.18018 27.9367 5.12126C28.5371 5.06798 28.9454 5.47418 29.1729 6.30186C29.2237 6.52527 29.2628 6.75108 29.2907 6.97847C29.8686 7.11491 30.4303 7.14054 30.8695 7.38439C31.2455 7.59272 31.7161 8.04944 31.719 8.39928C31.6631 8.9048 31.4148 9.36998 31.025 9.69941C30.6939 9.99175 30.1461 10.0417 29.611 10.2272Z" fill="#4E4D4D"/>
<path d="M56.9403 28.1702C57.8121 28.3827 59.0009 28.1589 59.2032 29.4607C59.391 30.6709 58.3464 30.904 57.7225 31.1986C57.4827 31.9536 57.1965 32.693 56.8654 33.413C56.7499 33.6326 56.2874 33.755 55.9751 33.7733C54.9914 33.8297 54.5281 33.1655 54.1335 31.1922C53.4418 30.8657 52.2893 30.937 52.3055 29.7722C52.3216 28.6073 53.3512 28.5814 54.1471 28.4571C54.5326 27.6718 54.3289 26.5373 55.594 26.515C56.2074 26.5041 56.3663 26.713 56.9403 28.1702Z" fill="#4E4D4D"/>
</g>
<defs>
<clipPath id="clip0_550_130">
<rect width="59.2969" height="63.1473" fill="white"/>
</clipPath>
</defs>
</svg>
