<svg width="70" height="69" viewBox="0 0 70 69" fill="none" xmlns="http://www.w3.org/2000/svg">
<g clip-path="url(#clip0_550_127)">
<path d="M15.0192 58.249C15.3923 58.2237 15.7654 58.1921 16.1384 58.1614C16.9122 58.0971 17.712 58.0303 18.4938 58.0237C20.2821 58.007 22.1024 58.0365 23.8624 58.0638L25.2175 58.0843C25.334 58.0917 25.4493 58.1116 25.5615 58.144C24.9725 60.1359 24.0316 62.0066 22.7829 63.6686C22.1679 64.5055 21.5755 64.8022 20.7347 64.6924C20.1684 64.6281 19.5952 64.66 19.0394 64.7857C18.712 64.8474 18.4139 65.0143 18.1904 65.2606C17.9669 65.5072 17.8304 65.8197 17.8016 66.1507C17.7511 66.5759 17.8694 67.1686 18.7205 67.5758C19.095 67.7661 19.4981 67.8943 19.9139 67.9555C20.2347 67.995 20.5556 68.0365 20.8765 68.0781C22.0858 68.2345 23.3362 68.3963 24.5769 68.4421C26.3906 68.5086 28.2342 68.5274 30.0171 68.5453C31.083 68.5561 32.1486 68.5669 33.2139 68.5874C33.4794 68.6022 33.7429 68.6423 34.0008 68.7066C34.1343 68.735 34.2677 68.7634 34.4001 68.7868C34.4166 68.7896 34.4332 68.791 34.45 68.791H41.4783C41.5043 68.791 41.53 68.7876 41.5548 68.7808C41.6435 68.7566 41.7322 68.7276 41.8203 68.6983C41.9686 68.64 42.1241 68.6016 42.2824 68.5846C42.6865 68.5681 43.1018 68.5666 43.5031 68.5649C44.2253 68.5752 44.9472 68.5453 45.6659 68.4756C46.5666 68.3914 47.4454 68.1489 48.2614 67.7593C48.5124 67.6552 48.7303 67.4845 48.8912 67.2658C49.052 67.0471 49.1499 66.7886 49.1741 66.5187C49.1647 66.2426 49.0797 65.9741 48.9285 65.7426C48.7771 65.5111 48.5652 65.3254 48.3156 65.2054C47.8159 64.9375 47.27 64.7652 46.7067 64.6981C46.3251 64.6514 45.9397 64.6409 45.5558 64.6662C45.46 64.6696 45.3639 64.6731 45.2675 64.675C44.9968 63.9615 44.6902 63.271 44.3924 62.6013C43.7972 61.2615 43.2327 59.9909 42.9324 58.5513H44.1662C45.4783 58.5513 46.7264 58.5484 47.975 58.5578C48.2951 58.5604 48.6259 58.5888 48.9448 58.6147C49.151 58.6323 49.3572 58.6497 49.5637 58.6613C49.8455 58.677 50.1273 58.6992 50.4094 58.7211C51.1056 58.7899 51.8055 58.8138 52.5049 58.7922C54.0488 58.7088 55.5881 58.5265 57.0216 58.342C58.4913 58.1526 60.1778 57.8796 61.5948 57.0309C66.6717 53.988 69.1779 49.6428 69.0404 44.1157C68.9563 40.7351 68.9446 37.2946 68.9332 33.9675L68.9275 32.3465C68.9221 30.9905 68.9372 29.6106 68.9514 28.2757C68.9799 25.6611 69.0085 22.9575 68.8875 20.2999C68.7215 17.2001 68.3536 14.1143 67.7857 11.0621C67.1825 7.64516 65.7821 5.15302 63.5043 3.44299C60.6456 1.24545 57.0715 0.182714 53.4726 0.460101C50.2465 0.681926 47.2922 0.829757 44.4415 0.912515C41.5154 0.997832 38.5375 0.98651 35.6568 0.975419C31.4392 0.960062 27.0782 0.943519 22.7863 1.2262C21.0051 1.34366 19.1857 1.38374 17.4262 1.42242C15.8312 1.45797 14.1821 1.49409 12.5607 1.58794C9.44409 1.76796 6.76158 2.75997 4.58736 4.53598C3.46426 5.41549 2.527 6.50814 1.8297 7.75078C1.1324 8.99342 0.68885 10.3615 0.524704 11.776C0.323588 13.7539 0.231327 15.7414 0.248328 17.7294L0.246622 17.8955C0.238636 18.7083 0.293977 19.5289 0.347313 20.3229C0.390096 20.9549 0.432881 21.6084 0.445146 22.248C0.54269 27.9216 0.629679 33.9237 0.718667 41.137C0.7159 41.4646 0.693131 41.7922 0.650497 42.1172C0.605969 42.4614 0.581893 42.8075 0.578357 43.1544C0.583491 43.6888 0.61343 44.2286 0.642522 44.7504C0.676748 45.367 0.712386 46.0043 0.705541 46.6274C0.680727 48.9039 1.4394 51.0966 2.96076 53.145C5.73879 56.8794 9.79633 58.6002 15.0192 58.249ZM65.2256 33.1172L65.2276 36.0927C65.2302 39.0572 65.233 42.1218 65.2116 45.1363C65.1997 45.7833 65.0973 46.4255 64.9076 47.0446C64.4507 48.5911 63.6923 50.0327 62.6763 51.2868C61.1319 53.188 59.0153 54.3235 56.205 54.7584C54.6415 55.0004 52.9909 55.1815 51.1589 55.3118C50.6681 55.3306 50.1764 55.3064 49.6898 55.2396C49.3723 55.2057 49.0438 55.1707 48.7166 55.1582C47.4748 55.1104 46.2324 55.0746 44.99 55.0385C42.6192 54.9702 40.1675 54.8994 37.7645 54.743C34.2734 54.5155 30.7447 54.4586 27.2557 54.4586C25.5098 54.4586 23.7734 54.4731 22.057 54.4871C19.4797 54.5081 16.815 54.5292 14.1958 54.5027C12.2677 54.4831 10.7287 54.1785 9.35196 53.544C8.3383 53.0938 7.42708 52.4429 6.67373 51.6304C5.92041 50.8181 5.34068 49.8615 4.96984 48.8186C4.21458 46.7838 3.95903 44.9225 4.18863 43.1277C4.24365 42.601 4.26213 42.0715 4.24396 41.5422C4.24225 41.3801 4.24025 41.2183 4.24054 41.057C4.24322 39.738 4.24701 38.419 4.25197 37.0998C4.26395 33.5813 4.27619 29.9431 4.25023 26.364C4.23997 24.9637 4.19094 23.5426 4.14359 22.1679C4.08655 20.5468 4.02947 18.8715 4.03546 17.2263C4.02474 14.802 4.56312 12.4065 5.61044 10.2186C6.71766 7.93441 8.71932 6.5068 11.5641 5.97613C13.2363 5.6633 14.8986 5.49551 16.3042 5.3718C22.4306 4.83402 28.6826 4.78224 34.7269 4.73218C36.0814 4.72101 37.436 4.70795 38.7902 4.69316C40.7125 4.66984 42.6349 4.64891 44.557 4.63014C47.6057 4.59858 50.7579 4.5661 53.8585 4.51974C56.0245 4.48107 58.1479 5.16241 60.548 6.64351C61.9245 7.4927 62.8868 8.89562 63.4082 10.8127C63.8255 12.3484 64.1275 13.9464 64.4196 15.4932L64.5745 16.3108C64.7687 17.3261 64.9347 18.4438 65.0824 19.7286C65.172 20.536 65.2165 21.3476 65.2154 22.1598C65.2256 24.8287 65.2279 27.4981 65.2225 30.1678V33.0663C65.2222 33.083 65.2231 33.0998 65.2256 33.1166V33.1172ZM27.4718 64.0013C27.8601 63.2272 28.1986 62.4292 28.4853 61.6124C28.7319 60.7968 28.9236 59.9658 29.0597 59.1252C29.1141 58.8294 29.1695 58.5308 29.2308 58.2299L39.109 58.4006C39.2733 60.707 39.9909 62.7452 40.7827 64.6119H27.1841C27.2782 64.4086 27.3752 64.2049 27.4718 64.0013Z" fill="#4E4D4D"/>
</g>
<defs>
<clipPath id="clip0_550_127">
<rect width="69.308" height="68.5379" fill="white" transform="translate(0 0.354919)"/>
</clipPath>
</defs>
</svg>
