<svg width="41" height="40" viewBox="0 0 41 40" fill="none" xmlns="http://www.w3.org/2000/svg">
<path d="M2.1014 29.5848C3.41984 32.7059 5.18626 34.7194 7.65945 35.9214C7.99617 36.085 8.33157 36.2519 8.66681 36.4186C9.49936 36.8329 10.3603 37.2611 11.2306 37.6324C14.9605 39.224 18.3053 40.0001 21.5208 40C22.673 40.0001 23.8229 39.8996 24.9577 39.6995C30.6471 38.6995 35.0058 35.8549 37.9128 31.2449C39.4534 28.8006 40.3828 25.9978 40.836 22.4243C41.5182 17.0422 40.0701 11.8987 36.5319 7.13688C34.1337 3.90909 30.6477 1.77803 25.8751 0.621823C23.1469 -0.0396521 20.2132 -0.171629 16.9061 0.217492C13.2027 0.653319 10.0667 1.99344 7.31947 4.31463C5.3165 5.98968 3.57034 7.95198 2.13725 10.1383C0.522538 12.6294 -0.0996514 15.5024 0.0584141 19.7436C-0.206756 22.5778 0.423431 25.6137 2.1014 29.5848ZM29.8051 4.20081C33.3289 6.04526 35.8391 8.7945 37.2661 12.3744C37.3368 12.5517 37.4079 12.7288 37.4793 12.9055C38.0975 14.4402 38.7337 16.0231 38.8923 17.7089C38.4412 17.6034 37.9809 17.5421 37.5178 17.5261C35.2138 17.3968 32.8016 17.6061 29.9277 18.1838C28.8394 18.4025 27.7353 18.6588 26.6687 18.9066C26.2133 19.0123 25.7557 19.1176 25.2959 19.2228L22.4886 14.3029C22.556 14.23 22.6222 14.1576 22.6871 14.0856C22.8762 13.8774 23.0545 13.6819 23.2472 13.5015C25.4841 11.4092 27.1968 8.71675 28.6363 5.02843C28.7884 4.61855 28.8725 4.18641 28.8856 3.7492C29.1943 3.8918 29.5008 4.04235 29.8051 4.20081ZM29.8437 35.7762C29.8344 35.4289 29.8026 35.0841 29.7669 34.754C29.2928 30.3864 28.3486 26.6116 26.8781 23.2141C26.7399 22.8768 26.6205 22.5321 26.5204 22.1814C26.4844 22.0639 26.4487 21.947 26.4118 21.8315C28.7342 20.8294 34.7252 19.9871 37.6839 20.5115C37.7445 20.5223 37.8054 20.5342 37.8662 20.5459C38.1124 20.6041 38.3646 20.6322 38.6175 20.6297C38.7259 20.6241 38.8336 20.6085 38.9392 20.5832C38.8271 24.3912 38.009 27.347 36.3703 29.9523C34.8039 32.4886 32.5362 34.5122 29.8437 35.7762ZM7.39726 33.0799C5.97067 32.1933 4.84822 30.8636 4.06101 29.1265C2.47162 25.6202 1.78173 22.5451 1.88987 19.4488C1.92854 19.0129 1.96112 18.5762 1.99356 18.1398C1.99459 18.126 1.99578 18.1118 1.99682 18.098C2.18295 18.1728 2.37294 18.2377 2.56597 18.2921C8.17972 19.8791 13.7179 19.2909 19.0284 16.5427C19.3565 16.373 19.6842 16.2018 20.0436 16.0138L20.4594 15.7966C21.4068 17.2989 22.1651 18.6241 22.7566 20.1132C22.6381 20.1668 22.5257 20.2173 22.4159 20.2669C22.1159 20.4021 21.8324 20.5298 21.558 20.6637C21.1877 20.8441 20.8143 21.0207 20.4416 21.1971C19.5446 21.6215 18.6173 22.0598 17.7356 22.5526C14.1071 24.5708 11.0082 27.4259 8.69422 30.8824C8.23235 31.5998 7.83068 32.3544 7.49339 33.1386C7.46168 33.119 7.42955 33.1 7.39726 33.0799ZM9.10825 34.0481C9.2361 33.851 9.36128 33.6517 9.48645 33.4523C9.78762 32.9731 10.0989 32.4777 10.4426 32.0232C13.5831 27.8723 17.7948 24.7792 22.9624 22.8307C23.1754 22.7566 23.3932 22.6968 23.6142 22.6522C23.6937 22.6339 23.7755 22.6151 23.8598 22.5949C25.0808 25.7299 26.3319 28.9712 26.79 32.4093C26.8275 32.6905 26.8645 32.9716 26.901 33.2527C27.0398 34.3167 27.1835 35.4167 27.367 36.4932C27.3793 36.5656 27.3954 36.6348 27.4131 36.7024C26.5971 36.945 25.7666 37.1356 24.9267 37.2726C19.7282 38.1291 14.5306 37.0822 9.09063 34.0745L9.10825 34.0481ZM26.2711 3.78523L26.2583 3.83265C25.7791 5.61641 24.9163 7.3645 23.461 9.4999C22.7682 10.5112 21.9309 11.4146 20.9758 12.1809C20.796 11.9456 20.6197 11.714 20.4468 11.4863C20.0123 10.9145 19.6017 10.3744 19.1768 9.83516C17.042 7.12797 15.2354 5.20919 13.3194 3.61106C13.1451 3.46691 12.9611 3.33496 12.7686 3.21624C13.8598 2.78427 14.995 2.47413 16.1537 2.29137C19.9957 1.67481 23.457 1.86592 26.641 2.87844C26.4614 3.15436 26.3359 3.46212 26.2711 3.78523ZM11.0316 4.25601C11.4952 4.73497 11.982 5.20544 12.4528 5.66046C13.0925 6.27909 13.7539 6.91852 14.3625 7.58342C16.105 9.47693 17.6739 11.5243 19.0503 13.7007C18.9318 13.7785 18.8217 13.8513 18.7189 13.9196C18.4623 14.0903 18.2407 14.2379 18.0157 14.3611C13.4179 16.8757 8.40281 17.5682 3.11023 16.4188C2.77648 16.3462 2.4636 16.284 2.15592 16.2422C2.19162 15.8974 2.22999 15.5531 2.27962 15.2128C2.5676 13.2132 3.21052 11.6414 4.24557 10.4083C5.3981 9.03462 6.75313 7.45299 8.25142 6.06712C9.06169 5.31584 9.95438 4.65951 10.9123 4.11068C10.9487 4.16182 10.9885 4.21039 11.0316 4.25601Z" fill="#363636"/>
</svg>
