<svg width="45" height="41" viewBox="0 0 45 41" fill="none" xmlns="http://www.w3.org/2000/svg">
<path d="M23.8402 22.66C22.7361 21.1191 21.3075 19.8405 19.6556 18.9146C19.657 18.888 19.658 18.8646 19.6588 18.8443C19.6596 18.8239 19.6598 18.804 19.6614 18.7899C19.9371 18.3811 20.2155 17.9759 20.4891 17.5861C22.3526 14.9816 23.3435 11.8519 23.3194 8.64731C23.3058 5.41232 22.0418 3.11538 19.4551 1.62675C17.91 0.722628 16.1759 0.191883 14.3905 0.0767873C11.2805 -0.132879 8.14582 0.126652 5.11377 0.377929C4.62707 0.418249 4.14046 0.45802 3.65397 0.497158C0.944131 0.711501 0.801367 0.857421 0.599541 3.62034C0.45614 5.58314 0.456314 7.58659 0.456475 9.52326L0.455532 11.5607C0.452152 15.9555 0.448773 20.4998 0.520878 24.9689C0.569161 27.9409 0.676969 30.9607 0.781745 33.8814C0.829385 35.2113 0.875301 36.541 0.919508 37.871C0.921922 37.9486 0.920795 38.0265 0.919508 38.1044C0.9142 38.2526 0.919593 38.4008 0.935618 38.548C1.06615 39.5562 1.54609 40.0494 2.53992 40.1973C2.79528 40.2328 3.05292 40.2494 3.31071 40.2468C3.44993 40.2468 3.58737 40.2434 3.7216 40.2396C4.28577 40.2228 4.84991 40.2065 5.41407 40.191C7.45712 40.1326 9.56971 40.0723 11.6469 39.9826L11.7273 39.9793C13.973 39.8825 16.2951 39.7818 18.5716 39.5788C22.2586 39.2496 24.7386 37.0189 25.9431 32.9491C26.9772 29.4482 26.2701 25.9866 23.8402 22.66ZM15.428 17.7819C14.6702 17.6421 13.875 17.6882 13.106 17.7334C12.9347 17.7432 12.764 17.7534 12.5944 17.7613C10.2154 17.8727 7.84741 17.9964 5.34036 18.1275C4.43327 18.1759 3.51041 18.2233 2.56614 18.2727C2.63052 16.1099 2.55151 13.9524 2.47458 11.8641C2.36192 8.79412 2.24427 5.62118 2.59706 2.46135C2.78107 2.44997 2.96316 2.43832 3.14332 2.42639C3.63775 2.39413 4.10481 2.36428 4.57976 2.34331C5.20375 2.31589 5.82787 2.2849 6.45185 2.25377C8.10814 2.17168 9.8208 2.08668 11.5041 2.07249C12.8427 2.06104 14.2157 2.23522 15.4256 2.38844C16.9561 2.58198 18.3812 3.33923 19.7824 4.70206C20.6007 5.49782 20.9699 6.59295 20.9795 8.25238C21.0219 11.3924 19.9146 14.4391 17.8672 16.8163C17.1453 17.6763 16.4164 17.963 15.428 17.7817V17.7819ZM2.86729 20.1918C3.09937 20.1284 3.33733 20.0892 3.5774 20.0744C4.75085 20.0508 5.94491 20.0407 7.09985 20.031C9.30127 20.0126 11.5775 19.9934 13.8132 19.8795C19.3176 19.5963 23.2798 24.0875 23.9292 28.5897C24.296 31.1341 23.6211 33.4107 21.9225 35.3561C21.2734 36.1438 20.3676 36.6764 19.3648 36.8601L19.1621 36.8946C18.373 37.0465 17.5752 37.1481 16.7734 37.1986C12.9391 37.3523 9.03893 37.4749 5.26716 37.5934L4.5675 37.6155C4.27136 37.6187 3.97525 37.6057 3.68053 37.5763C3.55177 37.5663 3.41611 37.5558 3.27094 37.5462L2.57887 20.2566C2.67914 20.235 2.77458 20.2127 2.86729 20.1923V20.1918Z" fill="#363636"/>
<path d="M38.5014 24.4086C37.3323 24.2586 36.1445 24.3676 35.0219 24.7282C33.8995 25.0887 32.8696 25.6919 32.0053 26.4951C31.1646 27.2973 30.51 28.2748 30.0875 29.3585C29.665 30.4421 29.4852 31.6053 29.5607 32.7664C29.5968 33.6182 29.8095 34.4535 30.1854 35.2186C30.561 35.9838 31.0916 36.6621 31.7433 37.2106C33.1815 38.458 35.2101 39.0897 37.2262 39.0896C39.0675 39.0896 40.8984 38.5625 42.2589 37.4959C42.746 37.1061 43.1423 36.6142 43.4196 36.0549C43.5805 35.731 43.3726 35.0924 43.1 34.8519C42.835 34.6188 42.3596 34.6319 41.9331 34.6616C41.6992 34.6777 41.4957 34.8838 41.3318 35.0487L41.2996 35.0809C39.7883 36.597 37.8876 37.0268 35.1377 36.4715C33.0648 36.0533 31.8112 34.4458 31.7592 32.1559H33.3483C34.6358 32.1551 35.8848 32.1546 37.1335 32.1572C37.8383 32.1586 38.5431 32.162 39.2477 32.1672C40.6129 32.1756 42.0245 32.1845 43.4127 32.1706C44.6095 32.1591 44.9647 31.8193 44.9972 30.6565C45.0418 29.0516 44.5799 27.7784 43.5849 26.7635C42.2764 25.4297 40.6138 24.66 38.5014 24.4086ZM42.7686 30.1775L32.038 30.3886C33.0246 27.7673 34.8586 26.3633 37.2676 26.3633C37.5354 26.3636 37.8031 26.3801 38.0688 26.4127C40.9096 26.7565 42.4898 28.0227 42.7686 30.1775Z" fill="#363636"/>
<path d="M42.1069 19.8701C42.0104 19.8724 41.9375 19.8687 41.8834 19.8746C41.0626 19.9461 40.2689 20.0143 39.4961 20.0806C37.3912 20.2615 35.4031 20.4322 33.435 20.6231C32.8695 20.6707 32.3165 20.8159 31.8001 21.0521C31.6518 21.1212 31.5269 21.2326 31.4411 21.3721C31.3551 21.5118 31.3122 21.6737 31.3173 21.8377C31.3237 22.0152 31.3812 22.1871 31.4829 22.3326C31.5845 22.478 31.7259 22.5911 31.8903 22.6579C32.1721 22.7666 32.4723 22.82 32.7742 22.815C32.826 22.815 32.8751 22.8137 32.9206 22.8116C36.0765 22.6629 39.2838 22.4951 42.3855 22.3329L42.7108 22.3158C42.9783 22.3127 43.2445 22.278 43.5038 22.2122C44.1606 22.0177 44.5128 21.5652 44.4695 20.9705C44.4242 20.3443 43.9887 19.9277 43.3329 19.8837C42.8663 19.8514 42.391 19.8629 42.1069 19.8701Z" fill="#363636"/>
</svg>
