<svg width="29" height="40" viewBox="0 0 29 40" fill="none" xmlns="http://www.w3.org/2000/svg">
<path d="M23.9017 9.76086C24.547 9.68605 25.2126 9.65624 25.8562 9.62716C26.1135 9.61563 26.3709 9.60407 26.6282 9.59054C27.7351 9.52872 28.468 8.95624 28.6385 8.02012C29.1064 5.45393 29.1196 3.35911 28.6808 1.42725C28.4615 0.46241 27.7976 -0.0420643 26.8202 0.00274799C25.8514 0.0482919 24.8615 0.0758962 23.9042 0.102418C21.4415 0.170825 18.8945 0.24142 16.4372 0.624793C12.0514 1.30887 9.30532 3.95795 8.70341 8.08434C8.55343 9.28152 8.47444 10.4859 8.46689 11.6916C8.45446 12.1709 8.44165 12.6665 8.41966 13.1516C8.40322 13.515 8.40724 13.8845 8.41144 14.2754C8.41297 14.4124 8.4145 14.5534 8.41507 14.7006C8.01011 14.7138 7.62082 14.7261 7.24281 14.7372C6.28278 14.7668 5.37609 14.7949 4.47954 14.836L4.08566 14.8531C3.29517 14.8733 2.5064 14.9351 1.72295 15.0379C0.604606 15.2049 0.189708 15.6428 0.13598 16.711C0.0514685 18.412 -0.034589 20.3891 0.0141678 22.3469C0.0556589 24.0114 0.831577 24.7064 2.69236 24.7455C3.45717 24.7613 4.23288 24.7399 4.98298 24.7187C5.45563 24.7053 5.94435 24.6914 6.42388 24.6874C6.71038 24.6877 6.99663 24.7029 7.28143 24.7327C7.35791 24.7391 7.43439 24.7455 7.50724 24.751C7.52636 24.7977 7.54259 24.839 7.55789 24.8765C7.58736 24.9349 7.60799 24.9969 7.61909 25.0609C7.63592 28.9502 7.65256 33.0958 7.656 37.2591C7.65772 39.2552 8.16173 39.7697 10.2246 39.88C11.9108 39.9702 13.628 39.983 15.2875 39.9952L15.9225 40C15.9798 40 16.0341 40 16.0884 40C18.5098 40 18.9988 39.5276 19.2954 37.0744C19.3528 36.6329 19.3855 36.1888 19.3933 35.7439C19.4168 33.2564 19.4317 30.7284 19.4466 28.2832L19.4512 27.4838C19.4541 26.9891 19.4537 26.4945 19.4528 25.954V25.306C19.9011 25.306 20.3283 25.3069 20.7405 25.3074C21.7539 25.3093 22.7088 25.3105 23.6468 25.3036C25.0114 25.2935 25.9986 24.6588 26.4279 23.5166C27.0707 21.804 27.6869 19.9272 28.312 17.7795C28.4733 17.2247 28.4101 16.743 28.1288 16.3858C27.8391 16.0178 27.3498 15.8204 26.7139 15.8155C25.5885 15.8067 24.443 15.8471 23.3367 15.886C22.76 15.9063 22.1831 15.9265 21.6069 15.9409C21.1784 15.9512 20.7419 15.9486 20.3189 15.9457C20.174 15.9447 20.029 15.9439 19.8845 15.9434C19.8587 15.8487 19.8348 15.764 19.8126 15.6874C19.7606 15.5229 19.7206 15.3553 19.6929 15.1856C19.6451 14.8901 19.6312 14.5904 19.6514 14.292C19.9294 11.6786 20.264 10.1803 23.9017 9.76086ZM24.7307 18.8658L23.7132 22.3134L22.6357 22.3304C21.7824 22.3436 20.9476 22.3566 20.112 22.3723C16.7345 22.4367 16.2892 22.8404 16.1397 25.9736C16.0382 28.0977 16.0261 30.2595 16.0143 32.3499C16.0095 33.2306 16.0045 34.1115 15.9932 34.9916C15.9869 35.4913 15.9884 35.991 15.9902 36.5136C15.9902 36.7117 15.9915 36.9129 15.9919 37.1187C14.4252 37.3831 13.0114 37.2915 11.5177 37.1946C11.3513 37.184 11.1839 37.1734 11.0156 37.1627C11.0022 37.0828 10.9881 37.0051 10.9745 36.9286C10.9272 36.6996 10.8967 36.4679 10.8831 36.2349C10.8389 34.7678 10.7978 33.3005 10.7598 31.8332C10.6944 29.4005 10.6269 26.8856 10.5374 24.4121C10.4625 22.3286 9.95235 21.8951 7.66001 21.9553C6.58755 21.9847 5.52618 22.0418 4.40267 22.1016C3.96386 22.1254 3.51836 22.1494 3.0631 22.1722V17.8302C3.16788 17.8167 3.27209 17.8022 3.37553 17.788C3.70713 17.736 4.04138 17.701 4.37686 17.6831C4.96137 17.6623 5.55735 17.653 6.13364 17.6442C6.97493 17.631 7.84317 17.6175 8.69804 17.5679C10.8512 17.4432 11.2602 17.036 11.2701 15.0057C11.2734 14.4116 11.2692 13.8169 11.2652 13.2231C11.2588 12.2689 11.2523 11.2823 11.2764 10.314C11.306 9.69408 11.3758 9.07659 11.4852 8.46497L11.5403 8.10925C11.9456 5.44685 13.68 3.80654 16.8431 3.09448L17.0544 3.04581C17.4119 2.9484 17.7796 2.88961 18.1507 2.87059C19.9939 2.85413 21.8111 2.85652 23.7353 2.85835C24.3411 2.85908 24.9531 2.85954 25.5711 2.85978C25.9206 4.18531 25.7323 5.5553 25.4837 6.74218C25.2305 6.78535 24.9772 6.82797 24.7233 6.87016C24.0818 6.97698 23.4183 7.08751 22.7673 7.21445C19.1946 7.9095 17.5697 9.61399 17.1582 13.0949C17.136 13.2848 17.1125 13.4748 17.0894 13.6651C16.9768 14.5845 16.8599 15.5355 16.8408 16.4771C16.8076 18.1135 17.3997 18.7173 19.1032 18.7846C20.0694 18.8228 21.0506 18.8055 21.9994 18.7888C22.5241 18.7795 23.0665 18.7705 23.5994 18.7705C23.8707 18.7756 24.1416 18.7959 24.4105 18.8312C24.5112 18.8419 24.617 18.8536 24.7309 18.8653L24.7307 18.8658Z" fill="#363636"/>
</svg>
