<svg width="41" height="41" viewBox="0 0 41 41" fill="none" xmlns="http://www.w3.org/2000/svg">
<path d="M39.6396 6.63932C39.0495 1.75308 34.9714 -0.208297 31.193 0.0173627C28.9508 0.150015 26.7301 0.220642 24.0857 0.286048C21.6898 0.345265 19.2329 0.396121 17.0653 0.440952C13.9549 0.505522 10.7386 0.572412 7.54482 0.661405C3.87824 0.76378 0.921758 3.14515 0.35319 6.4526C0.1249 7.78013 0.118255 9.11969 0.132357 10.6073C0.173669 14.9516 0.236714 19.3413 0.298266 23.5865L0.304907 24.0462C0.329241 25.7539 0.353114 27.4619 0.376561 29.1698C0.380543 29.4575 0.390498 29.7459 0.400784 30.0343L0.401634 30.0574C0.443351 30.772 0.436318 31.4886 0.380571 32.2022C0.183306 34.108 0.906831 36.14 2.31623 37.6375C3.8829 39.3021 6.10322 40.1483 8.56995 40.0215C11.2616 39.881 14.0073 39.9078 16.6624 39.9335L16.8547 39.9356C20.0057 39.9658 23.21 40.0466 26.313 40.1253L27.8775 40.1647C28.141 40.1806 28.4024 40.2204 28.6586 40.2842C28.793 40.3129 28.9274 40.3414 29.0613 40.3646C29.0805 40.368 29.1001 40.3698 29.1195 40.3698H30.8172C30.834 40.3696 30.8506 40.3685 30.867 40.3661C31.2063 40.3159 31.5472 40.2705 31.887 40.2256L31.9126 40.2223C32.6744 40.1219 33.4622 40.0185 34.23 39.8504C37.5422 39.1249 40.3484 35.6612 40.3576 32.287C40.36 31.4921 40.3628 30.6969 40.3659 29.9016L40.3674 29.5023C40.384 25.1437 40.4023 20.6367 40.3094 16.1987C40.2415 12.9714 40.0162 9.7544 39.6396 6.63932ZM37.798 32.052C37.8081 34.6581 35.5536 37.098 32.6653 37.6067C30.4522 37.9964 28.1901 37.864 26.0021 37.7363C25.19 37.6888 24.3501 37.6396 23.5156 37.6174C22.5683 37.5923 21.6034 37.543 20.665 37.4949L20.582 37.4906C20.1782 37.47 19.774 37.4494 19.3732 37.431H19.3546C18.3336 37.431 17.3126 37.4299 16.2915 37.4272C15.1064 37.4252 13.9024 37.4232 12.6934 37.4232C11.1032 37.4232 9.79586 37.4265 8.5781 37.4339H8.52451C6.73834 37.4339 5.26492 36.8998 4.2635 35.8887C3.22225 34.8375 2.67891 33.2675 2.69268 31.3478C2.72486 26.834 2.70543 22.2643 2.68652 17.8448C2.6759 15.3216 2.66497 12.7126 2.66364 10.1346C2.63871 8.64994 2.97175 7.18134 3.63417 5.85511C4.38541 4.39844 5.72731 3.62544 7.85691 3.42253C10.8453 3.13816 13.2566 2.98324 15.4454 2.93523C21.7645 2.79572 26.6276 2.74637 31.2131 2.77498C34.558 2.79589 36.4898 4.38237 37.1194 7.62609C37.8163 11.2209 37.8063 14.9158 37.7959 18.491L37.7949 18.7941C37.7808 23.8643 37.7816 28.0768 37.7977 32.052H37.798Z" fill="#363636"/>
<path d="M21.1004 10.6629C19.004 10.6234 17.1383 11.053 15.5527 11.9342C13.6431 12.9948 11.6091 14.4267 11.0004 17.0016C10.2176 20.3119 10.5736 23.4969 12.0585 26.4681C13.1217 28.5959 14.7882 29.9052 16.878 30.2542C18.1285 30.4743 19.3947 30.5899 20.6641 30.5999C21.0622 30.5999 21.4573 30.5859 21.8365 30.5583C24.6502 30.3537 26.8851 29.2164 28.4793 27.1776C30.9479 24.0205 31.3771 20.4059 29.7555 16.4342C28.1875 12.5933 25.188 10.5968 21.1004 10.6629ZM27.9624 20.8121C27.9745 25.1279 25.1044 28.0101 20.6501 28.1533C19.517 28.1727 18.385 28.073 17.2722 27.856C15.848 27.5983 14.767 26.7341 14.0584 25.2876C12.8766 22.874 12.5899 20.3791 13.206 17.8725C13.6806 15.9411 15.0794 14.5245 17.4819 13.5418C18.3747 13.1798 19.3288 12.996 20.2911 13.0005C21.1246 13.0044 21.9535 13.1275 22.7528 13.366C25.9073 14.2916 27.9521 17.2142 27.9624 20.8121Z" fill="#363636"/>
<path d="M31.8985 6.46045H31.8509C31.3845 6.47223 30.9404 6.66394 30.6101 6.9961C30.2799 7.32825 30.0885 7.77555 30.0757 8.24571C30.0641 8.47486 30.0987 8.70397 30.1775 8.91924C30.2564 9.13453 30.3775 9.33149 30.5337 9.49826C30.6968 9.66569 30.8921 9.79801 31.1075 9.88714C31.323 9.97628 31.5539 10.0204 31.7869 10.0168C32.2461 10.0019 32.6821 9.80947 33.0045 9.47939C33.327 9.14933 33.5111 8.7069 33.5191 8.24367C33.534 7.31928 32.7767 6.48621 31.8985 6.46045Z" fill="#363636"/>
</svg>
