<svg width="41" height="41" viewBox="0 0 41 41" fill="none" xmlns="http://www.w3.org/2000/svg">
<path d="M28.1133 13.5228C26.1579 11.6101 23.6432 11.4037 21.5506 12.9843C20.7281 13.6056 19.937 14.4777 19.1324 15.6498C18.1077 17.1438 17.8432 18.965 17.6101 20.5714C17.1974 23.4134 17.5136 26.2355 17.8192 28.9636C17.8645 29.3667 17.9685 30.294 18.8705 30.2938C18.8994 30.2938 18.9293 30.293 18.96 30.291C19.8559 30.2334 19.8592 29.4639 19.8614 28.9544C19.8614 28.9055 19.8614 28.8576 19.8627 28.8112C19.874 28.2003 19.8592 27.5799 19.8448 26.9802C19.8244 26.1232 19.803 25.2371 19.859 24.3742C19.9631 22.564 20.1746 20.7616 20.4925 18.9766C20.7689 17.4836 21.5973 16.1506 22.8115 15.245C24.1021 14.2593 25.2542 14.3757 26.3349 15.6C27.153 16.5192 27.6985 17.65 27.9097 18.8645C28.1493 20.2757 28.3144 21.726 28.4738 23.1291C28.536 23.6758 28.5983 24.2229 28.6648 24.7688L28.6363 24.7727C28.5973 24.778 28.5613 24.7965 28.5344 24.8253C28.5075 24.8541 28.4912 24.8913 28.4886 24.9306C28.4717 25.1781 28.4543 25.4257 28.4363 25.6733C28.3937 26.2691 28.3496 26.8855 28.3185 27.4931L28.3147 27.5667C28.2784 28.007 28.2829 28.4497 28.3277 28.8891C28.432 29.6666 28.9769 30.2255 29.6835 30.2798C30.3637 30.332 30.996 29.8694 31.2563 29.129C31.3153 28.9536 31.352 28.7713 31.3656 28.5866C31.6249 25.6258 31.7728 21.729 30.6041 17.8445C30.0636 16.0475 29.2486 14.6334 28.1133 13.5228Z" fill="#363636"/>
<path d="M11.9113 28.5941C11.9221 29.1253 12.0539 29.6471 12.2965 30.1195C12.4489 30.4149 12.955 30.5683 13.2678 30.5683C13.2779 30.5683 13.2877 30.5683 13.2975 30.5683C13.5911 30.5588 13.954 30.204 14.034 29.931C14.1569 29.4785 14.2067 29.0094 14.1816 28.5411C14.0821 25.8007 13.9674 23.0149 13.8569 20.321L13.6368 14.9331C13.6202 14.5228 13.5888 13.7587 12.6636 13.6821C12.6332 13.6799 12.6027 13.6857 12.5751 13.6988C11.8644 14.0448 11.8868 14.6956 11.9049 15.2187C11.908 15.3082 11.9111 15.3971 11.9108 15.4839C11.8979 19.0757 11.8856 23.8119 11.9113 28.5941Z" fill="#363636"/>
<path d="M12.714 8.37361C12.6017 8.28681 12.4856 8.19717 12.3835 8.10388C12.3599 8.08204 12.3305 8.06743 12.2988 8.06175C12.2672 8.05605 12.2346 8.05953 12.2048 8.07174C11.081 8.52837 11.0093 9.31413 11.147 9.89287C11.2147 10.1243 11.3307 10.3387 11.4871 10.5217C11.6436 10.7048 11.837 10.8524 12.0545 10.9547C12.1192 10.9784 12.1878 10.9897 12.2566 10.9881C12.6135 10.9881 13.095 10.7392 13.2512 10.4851C13.3702 10.2768 13.4439 10.0455 13.4675 9.80656C13.4911 9.56758 13.4641 9.32634 13.3881 9.09863C13.2658 8.80026 12.9853 8.58368 12.714 8.37361Z" fill="#363636"/>
<path d="M39.5117 6.61197C38.9216 1.74584 34.8434 -0.20744 31.0651 0.0172916C28.8229 0.149399 26.6022 0.219859 23.9578 0.284829C21.5619 0.343803 19.105 0.394491 16.9374 0.439138C13.8269 0.503442 10.6105 0.570057 7.41688 0.658683C3.75031 0.760637 0.793829 3.13224 0.22526 6.42625C-0.00302965 7.74815 -0.00967512 9.08222 0.0044271 10.5637C0.0457383 14.8903 0.108784 19.2618 0.170336 23.4894L0.17714 23.9472C0.201583 25.6479 0.225456 27.3488 0.248794 29.0497C0.252776 29.3362 0.262729 29.6234 0.273015 29.9106L0.273866 29.9336C0.315584 30.6453 0.308551 31.359 0.252804 32.0697C0.0555385 33.9676 0.779064 35.9912 2.18846 37.4825C3.75514 39.1403 5.97546 39.9831 8.44218 39.8568C11.1339 39.7169 13.8795 39.7437 16.5347 39.7693L16.727 39.7712C19.8779 39.8015 23.0823 39.882 26.1853 39.9603L27.7498 39.9994C28.0132 40.0152 28.2747 40.0549 28.5309 40.1183C28.6651 40.147 28.7997 40.1755 28.9335 40.1986C28.9528 40.202 28.9722 40.2036 28.9918 40.2036H30.6895C30.7061 40.2036 30.7229 40.2023 30.7393 40.2C31.0786 40.15 31.4195 40.1049 31.7593 40.0602L31.7848 40.0569C32.5465 39.9569 33.3344 39.8538 34.1023 39.6864C37.4144 38.9639 40.2206 35.5146 40.2299 32.1545C40.2322 31.3625 40.2351 30.5705 40.2382 29.7785L40.2397 29.381C40.2563 25.0403 40.2745 20.5517 40.1816 16.132C40.1136 12.9173 39.8883 9.71423 39.5117 6.61197ZM37.6701 31.9201C37.6804 34.5154 35.4259 36.9453 32.5376 37.4519C30.3245 37.84 28.0624 37.7081 25.8744 37.581C25.0622 37.5337 24.2224 37.4847 23.3879 37.4626C22.4404 37.4376 21.4756 37.3884 20.5372 37.3406L20.4543 37.3364C20.0505 37.3159 19.6463 37.2955 19.2455 37.2771H19.2269C18.2059 37.2771 17.1847 37.2758 16.1636 37.2733C14.9787 37.2713 13.7753 37.2693 12.5657 37.2693C10.9754 37.2693 9.66808 37.2726 8.45114 37.28H8.39755C6.61138 37.28 5.13797 36.7479 4.13654 35.741C3.0953 34.6941 2.55195 33.1305 2.56572 31.2187C2.59791 26.7236 2.57848 22.1728 2.55957 17.7716C2.54895 15.2586 2.538 12.6602 2.53667 10.0929C2.51175 8.6143 2.84483 7.15176 3.50725 5.83099C4.25849 4.38031 5.60034 3.61049 7.72994 3.40842C10.7183 3.12521 13.1296 2.97093 15.3184 2.92312C21.6375 2.78418 26.5007 2.73504 31.0862 2.76353C34.4311 2.78435 36.3621 4.36432 36.9925 7.59386C37.6894 11.1739 37.6794 14.8536 37.6688 18.414L37.668 18.7159C37.6529 23.7661 37.6537 27.9619 37.6696 31.9201H37.6701Z" fill="#363636"/>
</svg>
