<svg width="310" height="41" viewBox="0 0 310 41" fill="none" xmlns="http://www.w3.org/2000/svg">
<path d="M10.4917 29.9752C4.71271 29.9752 0.194399 27.0798 0 21.5922H6.96892C7.16332 23.679 8.46521 24.6838 10.3032 24.6838C12.1411 24.6838 13.443 23.7147 13.443 22.1333C13.443 17.1094 6.32024e-07 19.8146 0.0765822 10.1891C0.0765822 5.0523 4.25322 2.1926 9.87902 2.1926C15.7699 2.1926 19.6815 5.12959 19.9524 10.308H12.8834C12.7714 8.566 11.5461 7.52556 9.78477 7.48395C8.2119 7.44827 7.02783 8.25684 7.02783 9.95721C7.01016 14.6719 20.2941 12.5315 20.2941 21.6279C20.2941 26.2058 16.7714 29.9752 10.4917 29.9752Z" fill="#4E4D4D"/>
<path d="M32.2053 7.83475C37.566 7.83475 41.3538 10.8074 42.4672 15.9501H35.4983C35.2902 15.2096 34.8398 14.562 34.2204 14.1129C33.6011 13.6638 32.8493 13.4396 32.0875 13.4769C29.7311 13.4769 28.1465 15.3318 28.1465 18.9228C28.1465 22.5138 29.7547 24.3747 32.0875 24.3747C33.8901 24.3747 34.921 23.4829 35.4983 21.9014H42.4672C41.3538 26.8836 37.566 30.0168 32.2053 30.0168C25.9256 30.0168 21.4839 25.7659 21.4839 18.9228C21.4839 12.0797 25.9197 7.83475 32.2053 7.83475Z" fill="#4E4D4D"/>
<path d="M50.9679 29.7076H44.4172V8.14389H50.9679V11.7111C51.6735 10.5547 52.6578 9.59764 53.8291 8.92914C55.0003 8.26065 56.3203 7.90254 57.6658 7.88824V14.9097H55.8986C52.7941 14.9097 50.9974 15.9917 50.9974 19.7016L50.9679 29.7076Z" fill="#4E4D4D"/>
<path d="M68.9999 30.0168C62.7202 30.0168 57.9722 25.7659 57.9722 18.9228C57.9722 12.0797 62.838 7.83475 69.0765 7.83475C75.3149 7.83475 80.1808 12.0857 80.1808 18.9228C80.1808 25.7599 75.2796 30.0168 68.9999 30.0168ZM68.9999 24.2974C71.3563 24.2974 73.5182 22.5554 73.5182 18.9466C73.5182 15.3378 71.3739 13.5958 69.0765 13.5958C66.779 13.5958 64.6348 15.2961 64.6348 18.9466C64.6348 22.597 66.6259 24.2974 68.9999 24.2974Z" fill="#4E4D4D"/>
<path d="M82.1306 1.11057H88.6813V29.7076H82.1306V1.11057Z" fill="#4E4D4D"/>
<path d="M91.8977 1.11057H98.4484V29.7076H91.8977V1.11057Z" fill="#4E4D4D"/>
<path d="M119.238 2.57907C125.824 2.57907 129.117 6.40192 129.117 11.1166C129.117 14.5173 127.279 17.7278 123.143 18.9644L129.346 29.7076H121.941L116.351 19.4638H114.784V29.7076H108.245V2.57907H119.238ZM118.855 8.06662H114.796V14.7908H118.855C121.305 14.7908 122.454 13.5125 122.454 11.3901C122.454 9.38053 121.305 8.06662 118.855 8.06662Z" fill="#4E4D4D"/>
<path d="M141.381 30.0168C135.102 30.0168 130.354 25.7659 130.354 18.9228C130.354 12.0797 135.219 7.83475 141.458 7.83475C147.696 7.83475 152.574 12.0857 152.574 18.9228C152.574 25.7599 147.685 30.0168 141.381 30.0168ZM141.381 24.2974C143.738 24.2974 145.9 22.5554 145.9 18.9466C145.9 15.3378 143.761 13.5958 141.458 13.5958C139.155 13.5958 137.016 15.2961 137.016 18.9466C137.016 22.597 139.025 24.2974 141.381 24.2974Z" fill="#4E4D4D"/>
<path d="M154.542 1.11057H161.086V29.7076H154.542V1.11057Z" fill="#4E4D4D"/>
<path d="M164.302 1.11057H170.835V29.7076H164.302V1.11057Z" fill="#4E4D4D"/>
<path d="M203.707 16.2949C203.707 24.6184 198.305 29.7076 189.539 29.7076H181.227V2.76929H189.539C198.305 2.76929 203.707 7.94768 203.707 16.2949ZM189.539 26.8003C196.508 26.8003 200.143 22.8586 200.143 16.289C200.143 9.71938 196.508 5.62305 189.539 5.62305H184.714V26.8003H189.539Z" fill="#4E4D4D"/>
<path d="M215.842 30.0525C209.869 30.0525 205.468 25.8015 205.468 19.0774C205.468 12.3532 209.716 8.17957 215.842 8.17957C221.969 8.17957 225.916 12.5078 225.916 18.2866C225.915 18.9978 225.876 19.7083 225.798 20.4151H209.026C209.297 24.7017 212.284 27.062 215.842 27.062C218.982 27.062 220.973 25.4389 221.733 23.1559H225.485C224.443 27.0382 221.05 30.0525 215.842 30.0525ZM209.068 17.5673H222.316C222.352 13.4055 219.288 11.1522 215.689 11.1522C212.284 11.1582 209.45 13.4352 209.068 17.5732V17.5673Z" fill="#4E4D4D"/>
<path d="M236.407 30.0525C231.506 30.0525 228.06 27.3473 227.824 23.5126H231.429C231.618 25.5637 233.421 27.0798 236.366 27.0798C239.123 27.0798 240.655 25.6886 240.655 23.9466C240.655 19.2319 228.248 21.9787 228.248 14.0952C228.248 10.849 231.276 8.14984 235.948 8.14984C240.619 8.14984 243.641 10.6944 243.883 14.8265H240.401C240.248 12.704 238.634 11.1582 235.842 11.1582C233.279 11.1582 231.748 12.3948 231.748 14.0952C231.748 19.119 243.924 16.3722 244.077 23.9466C244.065 27.4246 241.037 30.0525 236.407 30.0525Z" fill="#4E4D4D"/>
<path d="M246.858 2.69204C246.813 2.35619 246.841 2.01467 246.938 1.69033C247.035 1.366 247.199 1.06635 247.421 0.811449C247.642 0.55655 247.914 0.352287 248.22 0.212342C248.526 0.0723971 248.858 0 249.193 0C249.529 0 249.861 0.0723971 250.167 0.212342C250.472 0.352287 250.745 0.55655 250.966 0.811449C251.187 1.06635 251.352 1.366 251.449 1.69033C251.546 2.01467 251.573 2.35619 251.529 2.69204C251.573 3.02789 251.546 3.36942 251.449 3.69375C251.352 4.01809 251.187 4.31774 250.966 4.57264C250.745 4.82754 250.472 5.0318 250.167 5.17174C249.861 5.31169 249.529 5.38409 249.193 5.38409C248.858 5.38409 248.526 5.31169 248.22 5.17174C247.914 5.0318 247.642 4.82754 247.421 4.57264C247.199 4.31774 247.035 4.01809 246.938 3.69375C246.841 3.36942 246.813 3.02789 246.858 2.69204ZM247.447 8.53036H250.928V29.7077H247.417L247.447 8.53036Z" fill="#4E4D4D"/>
<path d="M263.971 8.17957C267.806 8.17957 270.557 10.1118 271.788 12.3948V8.53034H275.322V30.1714C275.322 36.0097 271.452 40.1417 265.308 40.1417C259.788 40.1417 255.847 37.3236 255.158 32.7992H258.604C259.37 35.3498 261.856 37.0858 265.308 37.0858C269.019 37.0858 271.817 34.7077 271.817 30.1714V25.7243C271.017 27.0851 269.869 28.2043 268.494 28.9656C267.119 29.7268 265.567 30.1021 264 30.0525C258.374 30.0525 254.044 25.6113 254.044 19.0417C254.044 12.4721 258.345 8.17957 263.971 8.17957ZM264.666 11.2355C260.831 11.2355 257.597 14.0536 257.597 19.0417C257.597 24.0298 260.848 26.9609 264.666 26.9609C268.483 26.9609 271.788 24.0655 271.788 19.0714C271.788 14.0773 268.495 11.2355 264.666 11.2355Z" fill="#4E4D4D"/>
<path d="M295.027 17.7278C295.027 13.3996 292.671 11.1879 289.136 11.1879C285.602 11.1879 283.128 13.4293 283.128 17.9894V29.7017H279.64V8.53037H283.128V11.5447C284.506 9.33893 287.033 8.14392 289.867 8.14392C294.733 8.14392 298.444 11.1582 298.444 17.2224V29.7077H294.998L295.027 17.7278Z" fill="#4E4D4D"/>
<path d="M305.148 30.0168C302.791 30.0168 301.242 28.4294 301.242 26.4496C301.242 24.4698 302.791 22.8289 305.148 22.8289C307.504 22.8289 309.012 24.4103 309.012 26.4615C309.012 28.5126 307.434 30.0168 305.148 30.0168Z" fill="#FF6F61"/>
</svg>
