<svg width="32" height="57" viewBox="0 0 32 57" fill="none" xmlns="http://www.w3.org/2000/svg">
<path d="M16.104 25.7051C16.16 18.8339 16.2049 11.9626 16.2806 5.09135C16.296 3.72181 16.4043 2.35024 16.5393 0.986209C16.564 0.760546 16.6566 0.547557 16.8052 0.37506C16.9538 0.202563 17.1513 0.07861 17.3719 0.0194077C17.7251 -0.0926115 18.2262 0.296828 18.2999 0.761946C18.3716 1.21303 18.4821 1.66183 18.5096 2.11517C18.6862 5.01038 18.9363 7.90536 18.989 10.8033C19.0968 16.7571 19.1237 22.7127 19.1305 28.6678C19.1371 34.3176 19.0662 39.9677 19.0528 45.6175C19.0508 46.5247 19.1656 47.4324 19.2471 48.338C19.2621 48.3981 19.292 48.4535 19.3341 48.4991C19.3762 48.5447 19.4292 48.5791 19.4881 48.5992C19.6292 48.6154 19.8666 48.5741 19.917 48.4811C20.8675 46.745 21.8672 45.0301 22.7152 43.2448C24.6878 39.0916 27.1071 35.1954 29.5344 31.3021C29.9333 30.6623 30.3385 29.9917 31.13 29.7336C31.2741 29.6867 31.5208 29.6135 31.569 29.6732C31.7695 29.8868 31.9137 30.1464 31.9887 30.4287C32.0244 30.7295 31.9754 31.0341 31.8471 31.3088C31.4033 32.2817 30.9403 33.2475 30.4427 34.194C26.8865 40.9591 23.3092 47.7128 19.7626 54.4826C18.4253 57.0362 17.1284 58.2496 14.1882 55.1842C13.3409 54.3011 12.4944 53.4077 11.7407 52.4474C8.24188 47.9937 4.76446 43.5237 1.30838 39.0374C0.862847 38.4205 0.466333 37.7701 0.12247 37.092C-0.11925 36.6497 0.0243269 36.2069 0.313987 35.8249C0.633169 35.4047 1.56121 35.1438 1.9692 35.2887C2.87502 35.6107 3.5396 36.2522 4.14138 36.9411C6.45815 39.5938 8.75821 42.2607 11.0415 44.9416C12.5337 46.6838 14.004 48.4443 15.4992 50.1837C15.5731 50.2697 15.802 50.2739 15.9397 50.2391C15.9994 50.2163 16.0525 50.1794 16.0946 50.1316C16.1367 50.0839 16.1665 50.0267 16.1815 49.965C16.2418 49.056 16.318 48.1451 16.3132 47.2351C16.275 40.0582 16.2274 32.8813 16.1704 25.7044L16.104 25.7051Z" fill="#FF6F61"/>
</svg>
