<svg width="22" height="15" viewBox="0 0 22 15" fill="none" xmlns="http://www.w3.org/2000/svg">
<path d="M10.8976 12.5446C11.9495 11.1684 12.8927 9.94379 13.8278 8.71185C15.3592 6.69416 16.8553 4.6463 18.4284 2.66458C19.0844 1.83837 19.8961 1.14312 20.6486 0.401142C20.9717 0.082463 21.3875 -0.195767 21.7769 0.182105C22.2094 0.601429 21.9371 1.05908 21.6008 1.40909C17.9806 5.17439 15.4968 9.83553 12.3476 13.9724C11.4195 15.1914 10.6379 15.3502 9.48974 14.3181C9.12166 13.9986 8.77664 13.6517 8.45739 13.2801C6.21754 10.58 3.95621 7.89757 1.779 5.14402C1.07996 4.25995 0.598626 3.18752 0.0546438 2.17975C-0.0379421 2.00798 -0.000470485 1.55533 0.0751361 1.52847C0.352734 1.42899 0.758787 1.32004 0.959977 1.45832C1.75128 2.00266 2.58296 2.54502 3.21713 3.2613C4.74784 4.99016 6.17203 6.81967 7.64716 8.60142C8.51472 9.64948 9.39956 10.6821 10.2721 11.7259C10.4625 11.9542 10.6347 12.1999 10.8976 12.5446Z" fill="#4E4D4D"/>
</svg>
