<svg width="81" height="45" viewBox="0 0 81 45" fill="none" xmlns="http://www.w3.org/2000/svg">
<path d="M36.5283 22.3541C26.7639 22.2753 16.9995 22.2121 7.23508 22.1057C5.28889 22.0841 3.33985 21.9318 1.4015 21.742C1.08082 21.7073 0.778107 21.5769 0.53298 21.368C0.287852 21.1591 0.111709 20.8813 0.0275794 20.5711C-0.131606 20.0743 0.421808 19.3697 1.08276 19.2661C1.72378 19.1656 2.36155 19.0099 3.00577 18.9712C7.12001 18.7228 11.2339 18.3712 15.3521 18.2971C23.8128 18.1455 32.2759 18.1072 40.7384 18.0976C48.7671 18.0884 56.7961 18.1885 64.8248 18.2069C66.114 18.2101 67.4038 18.0483 68.6909 17.9337C68.7762 17.9127 68.855 17.8707 68.9198 17.8115C68.9847 17.7523 69.0335 17.6778 69.0619 17.5949C69.0851 17.3969 69.0263 17.0626 68.8942 16.9916C66.427 15.6554 63.9901 14.2496 61.4531 13.057C55.5511 10.2827 50.0146 6.88069 44.4819 3.46731C43.5727 2.90634 42.6197 2.33651 42.2529 1.22344C42.1863 1.02083 42.0824 0.673822 42.1671 0.606051C42.4706 0.324038 42.8395 0.121283 43.2408 0.0159538C43.6682 -0.0343073 44.1012 0.0347338 44.4915 0.215367C45.874 0.839142 47.2465 1.49026 48.5915 2.18997C58.2048 7.19081 67.8152 12.1972 77.4226 17.2092C81.0514 19.0897 82.7757 20.9131 78.4197 25.0479C77.1647 26.2397 75.8952 27.4298 74.5305 28.4896C68.2016 33.4098 61.8495 38.2999 55.4742 43.16C54.5977 43.7868 53.6734 44.3444 52.7097 44.8277C52.0811 45.1676 51.4518 44.9661 50.9091 44.5584C50.3119 44.1095 49.9412 42.8049 50.147 42.2311C50.6046 40.9573 51.5163 40.0227 52.4953 39.1765C56.2649 35.9185 60.0546 32.6839 63.8644 29.4728C66.3401 27.3744 68.8418 25.3069 71.3137 23.2042C71.4358 23.1006 71.4419 22.7784 71.3924 22.5847C71.3599 22.5009 71.3075 22.4261 71.2396 22.3669C71.1718 22.3077 71.0905 22.2658 71.0028 22.2448C69.7108 22.1603 68.4166 22.0528 67.1236 22.0596C56.9248 22.1133 46.726 22.1802 36.5273 22.2604L36.5283 22.3541Z" fill="#4E4D4D"/>
</svg>
