<svg width="107" height="91" viewBox="0 0 107 91" fill="none" xmlns="http://www.w3.org/2000/svg">
<path d="M106.994 46.2989C107.101 54.1336 105.729 61.9187 102.95 69.2505C98.0909 82.0293 88.9823 89.3986 75.2134 90.6574C61.6908 91.8959 48.7773 89.9157 37.253 82.4308C23.2651 73.3332 16.189 55.5258 20.0418 39.3311C23.6894 23.9801 33.5849 14.5695 48.5583 9.91523C52.9291 8.43607 57.1836 6.63704 61.2871 4.53288C72.3597 -0.788238 84.5889 2.93382 92.5135 9.59542C102.868 18.2984 107.152 31.1453 106.994 46.2989Z" fill="#FF6F61"/>
<g clip-path="url(#clip0_550_108)">
<path d="M70.29 26.5844C70.438 26.6478 70.5753 26.7183 70.7199 26.7682C77.5464 29.0835 81.0983 34.2036 82.6002 40.967C83.0689 43.0777 82.7931 45.2567 82.112 47.3315C81.8407 48.1974 81.3876 48.9952 80.7831 49.6702C80.1783 50.3454 79.4364 50.8825 78.6077 51.2453C77.7786 51.608 76.8818 51.7879 75.9776 51.7729C75.0735 51.7579 74.183 51.5483 73.3665 51.1583C72.1596 50.5853 71.1148 49.6622 70.0098 48.8775C69.2586 48.3435 68.5338 47.7715 67.655 47.1091C67.4338 48.7191 67.3371 50.112 67.0414 51.4622C65.541 58.3108 62.0885 63.97 56.5696 68.2915C55.3988 69.1671 54.144 69.9239 52.8243 70.5505C49.3792 72.2736 45.9673 72.0141 42.6372 70.165C40.684 69.0418 38.9511 67.5697 37.5242 65.8211C37.1885 65.4228 36.8529 65.0267 36.4745 64.576C35.3787 65.1437 34.3436 65.7449 33.2561 66.2262C31.9726 66.7942 30.6437 67.2593 29.3347 67.7682C29.0445 67.881 28.6865 67.9186 28.4751 68.1153C27.6249 68.9061 26.6488 68.7658 25.6638 68.5749C24.6919 68.3874 23.7224 68.1824 22.7606 67.949C21.0276 67.5596 19.3744 66.8733 17.8731 65.9207C10.4745 61.0765 5.49873 54.3422 2.4677 46.0797C0.749467 41.3935 -0.00227834 36.4053 0.257915 31.4183C0.300108 29.5205 0.862014 27.6708 1.88214 26.0724C2.49945 25.1404 3.2248 24.3447 4.38039 24.0533C4.77995 23.9347 5.1555 23.7458 5.48936 23.4954C13.6856 17.751 22.5224 13.1001 31.2562 8.27492C35.5996 5.87533 40.02 3.61143 44.3082 1.11748C46.6884 -0.267372 49.0133 -0.00785121 51.3806 0.764233C53.6903 1.51763 55.6832 2.89114 57.5141 4.47145C63.6826 9.78903 67.5598 16.5641 69.9171 24.2865C70.0922 25.0433 70.217 25.8109 70.29 26.5844ZM63.076 45.0729C62.6814 44.7392 62.4535 44.537 62.2161 44.3468C60.2177 42.7453 58.1964 41.18 56.5098 39.2173C50.9662 32.8445 46.7946 25.39 44.2566 17.3215C43.2738 14.2192 42.8279 10.9706 42.9387 7.71699C42.9616 7.06624 43.0156 6.4164 43.066 5.59284C42.4276 5.91117 41.9601 6.12224 41.5131 6.37072C39.2757 7.61341 37.0363 8.85245 34.8114 10.1169C27.0473 14.5288 19.2889 18.9509 11.5362 23.3833C9.54568 24.5279 7.70741 25.9468 5.68886 27.0326C5.22629 27.2515 4.82862 27.5879 4.53535 28.0085C4.24204 28.4291 4.06328 28.9193 4.01669 29.4306C3.5547 32.335 3.988 35.1871 4.53696 38.0114C6.02852 45.6853 9.71046 52.2018 15.0826 57.8129C18.1408 61.0066 21.6257 63.4902 25.9335 64.6658C26.4174 64.8367 26.9363 64.8827 27.4425 64.8C30.0347 64.0925 32.2372 62.6096 34.4688 61.2894C30.5351 51.0688 30.572 40.7759 32.4652 30.3577C30.3902 28.8473 29.9997 27.7351 30.7478 25.4357C31.1954 24.0616 32.2781 23.1991 33.6641 23.2821C36.6719 23.4604 37.5199 24.0527 38.0985 25.9422C38.2816 26.7005 38.2697 27.4931 38.064 28.2456C37.7537 29.5566 36.4431 29.9108 35.2902 30.6775C35.1105 33.677 34.8233 36.7564 34.773 39.8386C34.733 42.294 34.9371 44.757 35.1135 47.2111C35.3708 50.7143 36.1025 54.1657 37.2889 57.4701C37.4894 58.032 37.7671 58.5657 37.9953 59.0819L63.076 45.0729ZM54.7815 30.3626C58.3261 27.3635 62.4489 26.4523 66.8064 26.1441C66.7554 25.8885 66.6898 25.6361 66.6105 25.3879C64.9465 21.2053 62.8749 17.1981 60.4255 13.4249C58.4292 10.4057 55.8977 7.78029 52.9567 5.67924C52.0413 5.01653 50.9531 4.57868 49.9141 4.1044C49.4756 3.94358 49.0157 3.84949 48.5495 3.82529C48.2889 3.77201 48.0179 3.82446 47.7954 3.97119C47.5733 4.11791 47.4177 4.347 47.363 4.60843C47.1998 5.05027 47.0973 5.51235 47.0579 5.98195C47.0066 7.60299 47.0365 9.22556 47.1476 10.8436C47.4973 14.5815 48.7875 18.0709 50.178 21.5168C51.3928 24.6222 52.9363 27.5877 54.7815 30.3623V30.3626ZM56.147 32.3341C56.165 32.4812 56.1989 32.6255 56.248 32.7649C56.4039 33.0363 56.5693 33.3032 56.7454 33.5615C58.7612 36.4939 61.1371 39.1594 63.8169 41.4953C64.6124 42.2493 65.6365 42.714 66.7255 42.8158C68.879 42.9886 70.8911 43.9613 72.368 45.5444C72.9734 46.1933 73.6435 46.7779 74.3686 47.2883C76.1183 48.4832 77.9708 47.8064 78.4899 45.7469C78.8594 44.2809 79.0602 42.7796 78.7596 41.2431C78.0389 37.5058 76.0054 34.1525 73.0296 31.793C71.5679 30.5854 69.7819 29.8406 67.8979 29.6528C63.7198 29.2312 59.8405 30.2091 56.1467 32.3341H56.147ZM39.9171 62.5894C40.9031 63.6032 41.626 64.4344 42.4374 65.1655C45.8996 68.2835 49.0237 68.5323 52.9701 66.0537C53.0586 65.9982 53.1465 65.9418 53.2313 65.8809C58.6703 61.9782 61.7718 56.6067 63.2344 49.861L39.9171 62.5894Z" fill="#363636"/>
</g>
<defs>
<clipPath id="clip0_550_108">
<rect width="83" height="72" fill="white"/>
</clipPath>
</defs>
</svg>
