<svg width="233" height="140" viewBox="0 0 233 140" fill="none" xmlns="http://www.w3.org/2000/svg">
<g clip-path="url(#clip0_558_2035)">
<path d="M43.4147 0H43.4085C19.4347 0 0 19.3696 0 43.2632V96.7368C0 120.63 19.4347 140 43.4085 140H43.4147C67.3885 140 86.8232 120.63 86.8232 96.7368V43.2632C86.8232 19.3696 67.3885 0 43.4147 0Z" fill="#FF6F61"/>
<path d="M43.4086 53.11C51.0504 53.11 57.2454 46.9358 57.2454 39.3195C57.2454 31.7033 51.0504 25.5291 43.4086 25.5291C35.7667 25.5291 29.5718 31.7033 29.5718 39.3195C29.5718 46.9358 35.7667 53.11 43.4086 53.11Z" fill="white"/>
<path d="M108.506 51.206C102.434 51.206 97.6922 48.2051 97.4944 42.5176H104.808C105.006 44.6805 106.373 45.7218 108.302 45.7218C110.231 45.7218 111.597 44.7174 111.597 43.0783C111.597 37.8715 97.4944 40.6752 97.5748 30.6989C97.5748 25.375 101.952 22.4111 107.863 22.4111C114.008 22.4111 118.151 25.4551 118.429 30.8222H111.01C110.886 29.0167 109.6 27.9384 107.751 27.8952C106.107 27.8583 104.858 28.6963 104.858 30.4586C104.858 35.3451 118.806 33.1452 118.806 42.5546C118.794 47.2808 115.096 51.206 108.506 51.206Z" fill="#4E4D4D"/>
<path d="M131.289 28.2588C136.915 28.2588 140.897 31.3398 142.059 36.6699H134.745C134.528 35.9029 134.056 35.2319 133.407 34.7663C132.758 34.3008 131.97 34.0682 131.171 34.1065C128.698 34.1065 127.029 36.0291 127.029 39.7509C127.029 43.4727 128.717 45.4014 131.171 45.4014C131.972 45.4489 132.764 45.2199 133.415 44.7529C134.066 44.286 134.536 43.6097 134.745 42.838H142.059C140.897 48.0018 136.915 51.2491 131.289 51.2491C124.698 51.2491 120.036 46.8433 120.036 39.7509C120.036 32.6585 124.698 28.2588 131.289 28.2588Z" fill="#4E4D4D"/>
<path d="M150.981 50.9287H144.112V28.5792H150.981V32.2764C151.726 31.0835 152.762 30.0977 153.992 29.4105C155.222 28.7232 156.607 28.3567 158.017 28.3451V35.5854H156.125C152.873 35.5854 150.981 36.7069 150.981 40.5519V50.9287Z" fill="#4E4D4D"/>
<path d="M169.912 51.2491C163.321 51.2491 158.338 46.8433 158.338 39.7509C158.338 32.6585 163.439 28.2588 170.023 28.2588C176.608 28.2588 181.647 32.6585 181.647 39.7509C181.647 46.8433 176.503 51.2491 169.912 51.2491ZM169.912 45.3213C172.385 45.3213 174.654 43.5158 174.654 39.7755C174.654 36.0352 172.404 34.2298 169.992 34.2298C167.581 34.2298 165.331 35.9921 165.331 39.7755C165.331 43.559 167.42 45.3213 169.912 45.3213Z" fill="#4E4D4D"/>
<path d="M183.693 21.2896H190.562V50.9287H183.693V21.2896Z" fill="#4E4D4D"/>
<path d="M193.938 21.2896H200.813V50.9287H193.938V21.2896Z" fill="#4E4D4D"/>
<path d="M109.829 56.6901C116.741 56.6901 120.197 60.6523 120.197 65.5387C120.197 69.0634 118.268 72.3908 113.928 73.6725L120.438 84.8072H112.685L106.818 74.1901H105.167V84.8072H98.3044V56.6901H109.829ZM109.427 62.3776H105.167V69.3468H109.433C112.005 69.3468 113.211 68.022 113.211 65.8222C113.205 63.7518 111.999 62.39 109.433 62.39L109.427 62.3776Z" fill="#4E4D4D"/>
<path d="M133.101 85.14C126.51 85.14 121.527 80.7342 121.527 73.6417C121.527 66.5493 126.627 62.1497 133.181 62.1497C139.735 62.1497 144.835 66.5555 144.835 73.6417C144.835 80.728 139.691 85.14 133.101 85.14ZM133.101 79.2122C135.574 79.2122 137.843 77.4067 137.843 73.6664C137.843 69.9261 135.592 68.1206 133.181 68.1206C130.77 68.1206 128.519 69.8829 128.519 73.6664C128.519 77.4498 130.609 79.2122 133.101 79.2122Z" fill="#4E4D4D"/>
<path d="M146.882 55.1805H153.757V84.8195H146.882V55.1805Z" fill="#4E4D4D"/>
<path d="M157.133 55.1805H164.002V84.8195H157.133V55.1805Z" fill="#4E4D4D"/>
<path d="M122.491 104.809C122.491 113.436 116.821 118.71 107.622 118.71H98.9226V90.7905H107.646C116.852 90.7905 122.491 96.1576 122.491 104.809ZM107.622 115.703C114.936 115.703 118.75 111.618 118.75 104.809C118.75 98 114.936 93.7544 107.622 93.7544H102.558V115.703H107.622Z" fill="#4E4D4D"/>
<path d="M135.227 119.068C128.958 119.068 124.34 114.662 124.34 107.693C124.34 100.724 128.797 96.3979 135.227 96.3979C141.657 96.3979 145.8 100.884 145.8 106.873C145.8 107.61 145.758 108.347 145.676 109.079H128.074C128.358 113.522 131.493 115.968 135.227 115.968C138.523 115.968 140.612 114.286 141.41 111.92H145.348C144.229 115.944 140.693 119.068 135.227 119.068ZM128.117 106.128H142.022C142.059 101.814 138.844 99.4789 135.067 99.4789C131.493 99.485 128.519 101.845 128.117 106.134V106.128Z" fill="#4E4D4D"/>
<path d="M156.805 119.068C151.661 119.068 148.05 116.264 147.803 112.29H151.58C151.784 114.415 153.676 115.987 156.768 115.987C159.661 115.987 161.269 114.545 161.269 112.739C161.269 107.853 148.248 110.7 148.248 102.529C148.248 99.1646 151.42 96.3979 156.329 96.3979C161.238 96.3979 164.403 99.0044 164.644 103.287H160.99C160.83 101.087 159.136 99.485 156.205 99.485C153.509 99.485 151.877 100.767 151.877 102.529C151.877 107.736 164.657 104.889 164.817 112.739C164.848 116.344 161.67 119.068 156.805 119.068Z" fill="#4E4D4D"/>
<path d="M167.779 90.7104C167.779 90.2229 167.924 89.7464 168.196 89.341C168.468 88.9357 168.854 88.6198 169.306 88.4332C169.758 88.2467 170.255 88.1979 170.735 88.293C171.214 88.3881 171.655 88.6228 172.001 88.9675C172.347 89.3122 172.582 89.7514 172.678 90.2295C172.773 90.7077 172.724 91.2032 172.537 91.6536C172.35 92.104 172.033 92.489 171.626 92.7598C171.219 93.0306 170.741 93.1752 170.252 93.1752C169.596 93.1752 168.967 92.9155 168.503 92.4533C168.04 91.991 167.779 91.3641 167.779 90.7104ZM168.397 96.7614H172.057V118.71H168.397V96.7614Z" fill="#4E4D4D"/>
<path d="M185.74 96.3979C189.759 96.3979 192.652 98.4005 193.938 100.767V96.743H197.648V119.173C197.648 125.217 193.592 129.506 187.137 129.506C181.35 129.506 177.214 126.579 176.491 121.896H180.107C180.911 124.54 183.52 126.339 187.137 126.339C191.038 126.339 193.969 123.874 193.969 119.173V114.613C193.13 116.023 191.927 117.183 190.485 117.972C189.043 118.761 187.415 119.15 185.771 119.099C179.866 119.099 175.322 114.496 175.322 107.687C175.322 100.878 179.835 96.3979 185.74 96.3979ZM186.463 99.5651C182.444 99.5651 179.044 102.486 179.044 107.656C179.044 112.826 182.457 115.864 186.463 115.864C190.47 115.864 193.938 112.863 193.938 107.693C193.938 102.523 190.482 99.5651 186.463 99.5651Z" fill="#4E4D4D"/>
<path d="M218.335 106.294C218.335 101.808 215.862 99.5158 212.183 99.5158C208.504 99.5158 205.883 101.845 205.883 106.602V118.741H202.223V96.743H205.883V99.8671C207.33 97.581 209.982 96.3424 212.956 96.3424C218.056 96.3424 221.958 99.4666 221.958 105.752V118.692H218.341L218.335 106.294Z" fill="#4E4D4D"/>
<path d="M228.944 119.031C226.471 119.031 224.845 117.386 224.845 115.334C224.845 113.282 226.49 111.569 228.944 111.569C231.399 111.569 233 113.208 233 115.334C233 117.46 231.355 119.031 228.944 119.031Z" fill="#FF6F61"/>
</g>
<defs>
<clipPath id="clip0_558_2035">
<rect width="233" height="140" fill="white"/>
</clipPath>
</defs>
</svg>
