<svg width="37" height="35" viewBox="0 0 37 35" fill="none" xmlns="http://www.w3.org/2000/svg">
<path d="M30.6166 6.40901C30.7011 6.33347 30.7686 6.24075 30.8144 6.13702C30.8602 6.0333 30.8833 5.92098 30.8822 5.80759C30.8811 5.69421 30.8558 5.58237 30.8079 5.47957C30.76 5.37677 30.6908 5.28539 30.6047 5.21154C30.5141 5.1338 30.4242 5.05646 30.3349 4.97954C29.6539 4.39402 28.9499 3.78774 28.2133 3.27059C22.5868 -0.68935 16.7408 -0.711628 10.8384 1.38849C5.49431 3.28856 2.06243 7.08995 0.636645 12.6849C-0.953844 18.936 0.438915 24.4506 4.77911 29.0776C4.89204 29.1972 5.00727 29.3167 5.12235 29.431C7.45385 31.7625 10.3578 33.202 12.6587 34.2036C13.6463 34.635 18.7137 35.1587 20.0848 34.9544C28.2328 33.7377 33.5949 29.142 35.4624 21.4535C35.819 19.9475 35.9966 18.4047 35.9914 16.857C35.9833 15.2317 35.71 13.6186 35.1822 12.0813C35.1437 11.9663 35.0803 11.8612 34.9966 11.7736C34.9128 11.6859 34.8107 11.6179 34.6975 11.5743C34.5844 11.5308 34.463 11.5128 34.3421 11.5216C34.2211 11.5304 34.1037 11.5659 33.9981 11.6254L33.9759 11.638C33.8081 11.7341 33.6794 11.8862 33.6123 12.0676C33.5453 12.249 33.5442 12.4482 33.6092 12.6304C34.0856 13.9518 34.3286 15.3459 34.3271 16.7506C34.3106 18.4357 34.0825 20.1121 33.6481 21.7404C32.3607 26.4195 29.283 29.8297 24.2388 32.1623C19.1109 34.6175 11.757 32.1354 9.8004 30.8436C7.63777 29.3651 5.74546 27.5257 4.20619 25.4059C1.79218 21.988 1.2506 17.0754 2.54779 12.5841C3.15482 10.5105 4.21573 8.59789 5.65357 6.98509C7.09142 5.37227 8.87017 4.09966 10.8608 3.25952C16.0396 1.10732 21.2359 0.727675 26.304 3.95091C26.9836 4.38356 28.7162 5.74405 29.5919 6.43881C29.7389 6.55536 29.9223 6.61621 30.1097 6.61059C30.2972 6.60496 30.4766 6.53324 30.6163 6.40809L30.6166 6.40901Z" fill="black"/>
<path d="M15.9815 22.4153C16.3286 22.0854 16.5192 21.9185 16.6938 21.7362C22.2895 15.89 28.4178 10.6267 34.5823 5.40415C34.8152 5.20688 35.0537 4.95522 35.3295 4.88454C35.6619 4.79958 36.2041 4.89731 36.3527 5.07783C36.4503 5.21124 36.512 5.36749 36.5319 5.53161C36.5518 5.69573 36.5291 5.8622 36.4661 6.01504C36.3212 6.39499 35.9683 6.72041 35.6481 7.0048C33.7373 8.70268 31.7731 10.342 29.8961 12.0749C25.9723 15.6987 22.0735 19.3494 18.1997 23.0271C16.5023 24.6351 15.849 24.7002 14.2871 22.982C13.259 21.8505 10.156 18.0368 9.20576 16.8352C9.07151 16.6484 8.95192 16.4515 8.84809 16.2463C8.63376 15.8662 8.49364 15.4474 8.91968 15.1527C9.39428 14.8245 9.73106 15.1669 10.0124 15.5235C10.2971 15.8846 10.5398 16.2812 10.8446 16.6233C11.7909 17.6851 14.959 21.2954 15.9815 22.4153Z" fill="black"/>
</svg>
