<svg width="100" height="92" viewBox="0 0 100 92" fill="none" xmlns="http://www.w3.org/2000/svg">
<path d="M99.9942 47.2989C100.101 55.1336 98.7293 62.9187 95.9497 70.2505C91.0909 83.0293 81.9823 90.3986 68.2134 91.6574C54.6908 92.8959 41.7773 90.9157 30.253 83.4308C16.2651 74.3332 9.189 56.5258 13.0418 40.3311C16.6894 24.9801 26.5849 15.5695 41.5583 10.9152C45.9291 9.43607 50.1836 7.63704 54.2871 5.53288C65.3597 0.211762 77.5889 3.93382 85.5135 10.5954C95.8676 19.2984 100.152 32.1453 99.9942 47.2989Z" fill="#FF6F61"/>
<g clip-path="url(#clip0_550_104)">
<path d="M76.5305 51.4612C75.858 51.482 75.1683 51.4761 74.5021 51.4711C74.2424 51.4692 73.9822 51.4672 73.7215 51.4665C73.705 51.2205 73.6885 50.9919 73.673 50.7753C73.636 50.263 73.6039 49.8204 73.5911 49.3785C73.5587 48.2457 73.523 47.1132 73.484 45.9807C73.3849 42.9319 73.2799 39.7797 73.2749 36.6804C73.2713 34.4864 73.1854 34.2034 70.9707 34.1043C70.6859 34.0917 70.4002 34.0864 70.1155 34.0802C68.9448 34.0822 67.7739 34.0822 66.6032 34.0802C59.0849 34.0782 51.3053 34.0756 43.6688 34.7523C43.3371 34.7754 43.0042 34.7797 42.6722 34.7652C42.5596 34.7625 42.4459 34.7599 42.3307 34.7582L41.4504 19.7022C41.5871 19.6926 41.7209 19.6824 41.8527 19.6725C42.2444 19.6428 42.6124 19.615 42.982 19.6097C43.5105 19.6021 44.0348 19.6038 44.5606 19.6051C45.3236 19.6074 46.1108 19.6097 46.8864 19.583C48.9578 19.512 49.7096 18.8207 49.7601 16.9428C49.8988 11.6583 49.9127 7.29706 49.805 3.22245C49.7756 2.12197 49.5058 1.3521 48.9792 0.869238C48.3986 0.336504 47.4908 0.126118 46.1266 0.208687C42.2398 0.439881 38.4019 0.704111 34.8034 0.957432L34.4526 0.981862C33.3837 1.03321 32.3193 1.15045 31.265 1.33294C30.3157 1.5179 29.7987 2.17911 29.809 3.19405C29.8285 5.09247 29.8295 7.02359 29.8305 8.89064C29.8305 11.3545 29.8331 13.9026 29.8774 16.4084C29.9206 18.8524 30.3662 19.1378 32.621 19.5027C33.0185 19.5625 33.4191 19.6 33.8207 19.615C35.0006 19.6692 36.1805 19.7181 37.3904 19.7683L38.6034 19.8188V34.9429C38.4934 34.959 38.384 34.9759 38.2731 34.9937C37.9477 35.0522 37.619 35.0921 37.289 35.1133C29.5021 35.4627 21.7154 35.8052 13.9287 36.1408C13.2826 36.1688 12.6362 36.1844 11.9898 36.2002C11.4507 36.2134 10.9113 36.2263 10.3712 36.2468C9.16293 36.292 8.48215 36.5153 8.09667 36.9942C7.72209 37.4589 7.64546 38.17 7.84761 39.2995C7.89419 39.5604 7.94671 39.821 7.99989 40.0809C8.09139 40.5311 8.18586 40.9965 8.24432 41.4559C8.6915 44.8656 8.80797 48.3104 8.59214 51.7426C8.07751 51.7426 7.57048 51.7416 7.07104 51.74C5.83434 51.7374 4.63496 51.7344 3.43526 51.7463C1.58945 51.7648 0.823124 52.4471 0.608419 54.2636C0.0718374 58.9377 0.0521067 63.657 0.549613 68.3357C0.687355 69.6733 1.27896 70.2988 2.59197 70.4953C3.27517 70.5838 3.96531 70.606 4.6528 70.5614C6.86063 70.4597 9.06836 70.3533 11.276 70.2423C13.6397 70.1254 16.0033 70.0121 18.3668 69.9018C19.6779 69.842 20.6004 69.4896 21.1871 68.8245C21.7737 68.1593 22.0053 67.2061 21.9012 65.9085C21.7965 64.6012 21.6409 62.8832 21.3668 61.1836C20.9129 58.368 20.4554 55.8585 19.9685 53.5116C19.6481 51.9649 18.9555 51.3909 17.4892 51.4688C16.2835 51.5322 15.0601 51.5177 13.8755 51.5035C13.4177 51.4982 12.9622 51.4926 12.511 51.4916L11.0887 39.2156L39.1504 38.3989V50.6851C38.9056 50.7013 38.6747 50.7181 38.4541 50.7323C37.9081 50.77 37.4241 50.8033 36.9396 50.8238C36.1762 50.8568 35.4125 50.8849 34.6488 50.9133C33.2902 50.9635 31.8853 51.0154 30.504 51.0936C29.8245 51.132 29.2963 51.4081 29.0905 51.8321C29.0156 51.9983 28.9883 52.1819 29.0116 52.3626C29.035 52.5436 29.108 52.7143 29.2227 52.856C29.7466 53.6047 29.7307 54.3673 29.7139 55.1752C29.7102 55.3403 29.7066 55.5098 29.7079 55.6775C29.7165 56.8335 29.7129 57.9895 29.7079 59.1454C29.7016 61.1776 29.695 63.2788 29.7581 65.345C29.817 66.2368 29.966 67.1206 30.203 67.9826C30.2836 68.3188 30.3642 68.655 30.4343 68.9913C30.7785 70.6529 32.1681 71.0092 33.1829 71.1328C33.5647 71.1711 33.9489 71.1843 34.3327 71.1724C34.4648 71.1724 34.595 71.1704 34.7274 71.1724L35.2517 71.1757C39.7103 71.2061 44.1695 71.2338 48.6294 71.2589C49.0916 71.2695 49.554 71.2394 50.0112 71.1684C50.8924 71.0155 51.5174 70.6532 51.8682 70.0911C52.2256 69.5194 52.2765 68.7796 52.0188 67.8921C51.892 67.3732 51.8335 66.8405 51.8451 66.3068C51.8209 64.9596 51.8101 63.6121 51.7995 62.2642C51.7767 59.4826 51.7536 56.6066 51.6089 53.7821C51.4721 51.1164 50.4452 50.6897 48.0299 50.7082C46.888 50.7151 45.7468 50.7138 44.5239 50.7118H42.9054L42.1708 38.0365L70.5779 37.3076L69.9503 51.4077H68.8712C68.0404 51.4058 67.2797 51.4038 66.5197 51.4117C66.0067 51.4173 65.4927 51.4163 64.9817 51.417C63.6426 51.4147 62.2688 51.417 60.9169 51.5194C59.1606 51.6545 58.6208 52.2876 58.6961 54.1256C58.7579 55.6343 58.8184 56.7833 58.8923 57.8514C58.9488 58.6639 59.004 59.4767 59.0575 60.2898C59.2164 62.7048 59.3809 65.202 59.6223 67.6517C59.8691 70.1565 60.9568 71.1767 63.5006 71.2903L66.3202 71.4165C69.7825 71.572 73.2452 71.723 76.7083 71.8696C76.7922 71.8729 76.8757 71.8749 76.9593 71.8749C77.398 71.8765 77.8353 71.8267 78.2621 71.7259C79.3405 71.4617 79.9282 70.9003 80.0084 70.0511C80.1795 68.2346 80.2961 66.4257 80.3536 64.6752C80.3949 63.4245 80.3893 62.1529 80.3837 60.9233C80.3814 60.3651 80.3791 59.8073 80.3807 59.2495C80.3824 58.792 80.3929 58.3346 80.4032 57.8765C80.426 56.8781 80.4494 55.846 80.3767 54.8334C80.2027 52.4233 79.0152 51.3873 76.5305 51.4612ZM32.2292 53.8108H47.9074V67.8782L33.0934 68.3443L32.2292 53.8108ZM3.19048 54.3739H16.3701C16.5257 55.4969 16.7192 56.6416 16.9065 57.751C17.3713 60.5029 17.8516 63.3472 17.8714 66.3712L3.76029 67.222C3.06828 63.5199 2.89683 59.6587 3.19048 54.3739ZM46.6687 4.26712C46.5759 7.39086 46.4755 10.5146 46.3714 13.713L46.2951 16.091L46.196 16.0979C41.819 16.4054 37.293 16.7254 32.7769 16.6795L32.1598 3.32451H46.5795C46.5907 3.42095 46.6026 3.51244 46.6125 3.59963C46.6489 3.82029 46.6677 4.04349 46.6687 4.26712ZM76.6016 54.728V67.9552H62.9414L61.3757 54.0136C66.4615 53.8927 71.5494 54.1315 76.6016 54.728Z" fill="#363636"/>
</g>
<defs>
<clipPath id="clip0_550_104">
<rect width="80.597" height="72" fill="white"/>
</clipPath>
</defs>
</svg>
